{"accessors" : [{"bufferView" : 0, "byteOffset" : 0, "componentType" : 5123, "count" : 12096, "type" : "SCALAR", "max" : [4031], "min" : [0]}, {"bufferView" : 1, "byteOffset" : 0, "componentType" : 5126, "count" : 4032, "type" : "VEC3", "max" : [11.7279996871948, 0.200000002980232, 3.50149989128113], "min" : [0.108000002801418, 0, 0.133399993181229]}, {"bufferView" : 1, "byteOffset" : 12, "componentType" : 5126, "count" : 4032, "type" : "VEC4", "max" : [0.699999988079071, 0.699999988079071, 0.699999988079071, 1], "min" : [0.699999988079071, 0.699999988079071, 0.699999988079071, 1]}, {"bufferView" : 0, "byteOffset" : 24192, "componentType" : 5123, "count" : 12096, "type" : "SCALAR", "max" : [4031], "min" : [0]}, {"bufferView" : 2, "byteOffset" : 0, "componentType" : 5126, "count" : 4032, "type" : "VEC3", "max" : [11.7279996871948, 0, 3.50149989128113], "min" : [0.108000002801418, -0.0299999993294477, 0.133399993181229]}, {"bufferView" : 2, "byteOffset" : 12, "componentType" : 5126, "count" : 4032, "type" : "VEC4", "max" : [0.699999988079071, 0.699999988079071, 0.699999988079071, 1], "min" : [0.699999988079071, 0.699999988079071, 0.699999988079071, 1]}, {"bufferView" : 0, "byteOffset" : 48384, "componentType" : 5123, "count" : 7062, "type" : "SCALAR", "max" : [2015], "min" : [0]}, {"bufferView" : 3, "byteOffset" : 0, "componentType" : 5126, "count" : 2016, "type" : "VEC3", "max" : [11.6979999542236, -0.0299999993294477, 3.47140002250671], "min" : [0.137999996542931, -0.0299999993294477, 0.163399994373322]}, {"bufferView" : 3, "byteOffset" : 12, "componentType" : 5126, "count" : 2016, "type" : "VEC4", "max" : [0.699999988079071, 0.699999988079071, 0.699999988079071, 1], "min" : [0.699999988079071, 0.699999988079071, 0.699999988079071, 1]}, {"bufferView" : 0, "byteOffset" : 62508, "componentType" : 5123, "count" : 7056, "type" : "SCALAR", "max" : [2015], "min" : [0]}, {"bufferView" : 4, "byteOffset" : 0, "componentType" : 5126, "count" : 2016, "type" : "VEC3", "max" : [11.7279996871948, 0.200000002980232, 3.50149989128113], "min" : [0.108000002801418, 0.200000002980232, 0.133399993181229]}, {"bufferView" : 4, "byteOffset" : 12, "componentType" : 5126, "count" : 2016, "type" : "VEC4", "max" : [0.699999988079071, 0.699999988079071, 0.699999988079071, 1], "min" : [0.699999988079071, 0.699999988079071, 0.699999988079071, 1]}, {"bufferView" : 0, "byteOffset" : 76620, "componentType" : 5123, "count" : 2832, "type" : "SCALAR", "max" : [943], "min" : [0]}, {"bufferView" : 5, "byteOffset" : 0, "componentType" : 5126, "count" : 944, "type" : "VEC3", "max" : [8.67430019378662, -0.00960000045597553, 0.0130000002682209], "min" : [0.0383000001311302, -3.30970001220703, 0.0130000002682209]}, {"bufferView" : 5, "byteOffset" : 12, "componentType" : 5126, "count" : 944, "type" : "VEC4", "max" : [0.699999988079071, 0.699999988079071, 0.699999988079071, 1], "min" : [0.699999988079071, 0.699999988079071, 0.699999988079071, 1]}, {"bufferView" : 0, "byteOffset" : 82284, "componentType" : 5123, "count" : 2832, "type" : "SCALAR", "max" : [943], "min" : [0]}, {"bufferView" : 6, "byteOffset" : 0, "componentType" : 5126, "count" : 944, "type" : "VEC3", "max" : [8.67430019378662, -0.209600001573563, 0.063000001013279], "min" : [0.0383000001311302, -3.30970001220703, -0.0370000004768372]}, {"bufferView" : 6, "byteOffset" : 12, "componentType" : 5126, "count" : 944, "type" : "VEC4", "max" : [0.699999988079071, 0.699999988079071, 0.699999988079071, 1], "min" : [0.699999988079071, 0.699999988079071, 0.699999988079071, 1]}, {"bufferView" : 0, "byteOffset" : 87948, "componentType" : 5123, "count" : 1722, "type" : "SCALAR", "max" : [471], "min" : [0]}, {"bufferView" : 7, "byteOffset" : 0, "componentType" : 5126, "count" : 472, "type" : "VEC3", "max" : [8.62430000305176, -0.259600013494492, 0.063000001013279], "min" : [0.088299997150898, -3.25959992408752, -0.0370000004768372]}, {"bufferView" : 7, "byteOffset" : 12, "componentType" : 5126, "count" : 472, "type" : "VEC4", "max" : [0.699999988079071, 0.699999988079071, 0.699999988079071, 1], "min" : [0.699999988079071, 0.699999988079071, 0.699999988079071, 1]}, {"bufferView" : 0, "byteOffset" : 91392, "componentType" : 5123, "count" : 1722, "type" : "SCALAR", "max" : [471], "min" : [0]}, {"bufferView" : 8, "byteOffset" : 0, "componentType" : 5126, "count" : 472, "type" : "VEC3", "max" : [8.67430019378662, -0.00960000045597553, 0.0130000002682209], "min" : [0.0383000001311302, -3.10969996452332, 0.0130000002682209]}, {"bufferView" : 8, "byteOffset" : 12, "componentType" : 5126, "count" : 472, "type" : "VEC4", "max" : [0.699999988079071, 0.699999988079071, 0.699999988079071, 1], "min" : [0.699999988079071, 0.699999988079071, 0.699999988079071, 1]}], "asset" : {"generator" : "Aspose.3D 20.2.1", "version" : "2.0"}, "buffers" : [{"uri" : "buffer.bin", "byteLength" : 512856}], "bufferViews" : [{"buffer" : 0, "byteOffset" : 0, "byteLength" : 94836, "target" : 34963}, {"buffer" : 0, "byteOffset" : 94840, "byteLength" : 112896, "byteStride" : 28, "target" : 34962}, {"buffer" : 0, "byteOffset" : 207740, "byteLength" : 112896, "byteStride" : 28, "target" : 34962}, {"buffer" : 0, "byteOffset" : 320640, "byteLength" : 56448, "byteStride" : 28, "target" : 34962}, {"buffer" : 0, "byteOffset" : 377092, "byteLength" : 56448, "byteStride" : 28, "target" : 34962}, {"buffer" : 0, "byteOffset" : 433544, "byteLength" : 26432, "byteStride" : 28, "target" : 34962}, {"buffer" : 0, "byteOffset" : 459980, "byteLength" : 26432, "byteStride" : 28, "target" : 34962}, {"buffer" : 0, "byteOffset" : 486416, "byteLength" : 13216, "byteStride" : 28, "target" : 34962}, {"buffer" : 0, "byteOffset" : 499636, "byteLength" : 13216, "byteStride" : 28, "target" : 34962}], "materials" : [{"pbrMetallicRoughness" : {"baseColorFactor" : [0.899999976158142, 0.899999976158142, 0.899999976158142, 1], "metallicFactor" : 0, "roughnessFactor" : 0}, "emissiveFactor" : [0, 0, 0], "alphaMode" : "OPAQUE", "doubleSided" : false}, {"pbrMetallicRoughness" : {"baseColorFactor" : [0.899999976158142, 0.899999976158142, 0.899999976158142, 1], "metallicFactor" : 0, "roughnessFactor" : 0}, "emissiveFactor" : [0, 0, 0], "alphaMode" : "OPAQUE", "doubleSided" : false}, {"pbrMetallicRoughness" : {"baseColorFactor" : [0.899999976158142, 0.899999976158142, 0.899999976158142, 1], "metallicFactor" : 0, "roughnessFactor" : 0}, "emissiveFactor" : [0, 0, 0], "alphaMode" : "OPAQUE", "doubleSided" : false}, {"pbrMetallicRoughness" : {"baseColorFactor" : [0.899999976158142, 0.899999976158142, 0.899999976158142, 1], "metallicFactor" : 0, "roughnessFactor" : 0}, "emissiveFactor" : [0, 0, 0], "alphaMode" : "OPAQUE", "doubleSided" : false}, {"pbrMetallicRoughness" : {"baseColorFactor" : [0.899999976158142, 0.899999976158142, 0.899999976158142, 1], "metallicFactor" : 0, "roughnessFactor" : 0}, "emissiveFactor" : [0, 0, 0], "alphaMode" : "OPAQUE", "doubleSided" : false}, {"pbrMetallicRoughness" : {"baseColorFactor" : [0.899999976158142, 0.899999976158142, 0.899999976158142, 1], "metallicFactor" : 0, "roughnessFactor" : 0}, "emissiveFactor" : [0, 0, 0], "alphaMode" : "OPAQUE", "doubleSided" : false}, {"pbrMetallicRoughness" : {"baseColorFactor" : [0.899999976158142, 0.899999976158142, 0.899999976158142, 1], "metallicFactor" : 0, "roughnessFactor" : 0}, "emissiveFactor" : [0, 0, 0], "alphaMode" : "OPAQUE", "doubleSided" : false}, {"pbrMetallicRoughness" : {"baseColorFactor" : [0.899999976158142, 0.899999976158142, 0.899999976158142, 1], "metallicFactor" : 0, "roughnessFactor" : 0}, "emissiveFactor" : [0, 0, 0], "alphaMode" : "OPAQUE", "doubleSided" : false}], "meshes" : [{"primitives" : [{"attributes" : {"POSITION" : 1, "COLOR" : 2}, "indices" : 0, "material" : 0, "mode" : 4}]}, {"primitives" : [{"attributes" : {"POSITION" : 4, "COLOR" : 5}, "indices" : 3, "material" : 1, "mode" : 4}]}, {"primitives" : [{"attributes" : {"POSITION" : 7, "COLOR" : 8}, "indices" : 6, "material" : 2, "mode" : 4}]}, {"primitives" : [{"attributes" : {"POSITION" : 10, "COLOR" : 11}, "indices" : 9, "material" : 3, "mode" : 4}]}, {"primitives" : [{"attributes" : {"POSITION" : 13, "COLOR" : 14}, "indices" : 12, "material" : 4, "mode" : 4}]}, {"primitives" : [{"attributes" : {"POSITION" : 16, "COLOR" : 17}, "indices" : 15, "material" : 5, "mode" : 4}]}, {"primitives" : [{"attributes" : {"POSITION" : 19, "COLOR" : 20}, "indices" : 18, "material" : 6, "mode" : 4}]}, {"primitives" : [{"attributes" : {"POSITION" : 22, "COLOR" : 23}, "indices" : 21, "material" : 7, "mode" : 4}]}], "nodes" : [{"mesh" : 0, "name" : "EXTRUDE"}, {"mesh" : 1, "name" : "ROUNDING"}, {"mesh" : 2, "name" : "CAP_1"}, {"mesh" : 3, "name" : "CAP_2"}, {"mesh" : 4, "name" : "EXTRUDE_1"}, {"mesh" : 5, "name" : "ROUNDING_1"}, {"mesh" : 6, "name" : "CAP_1_1"}, {"mesh" : 7, "name" : "CAP_2_1"}], "scene" : 0, "scenes" : [{"nodes" : [0, 1, 2, 3, 4, 5, 6, 7]}]}