{
	"asset":{
		"version":"2.0",
		"generator":"Created using the official Cinema 4D glTF Exporter 1.000x287587"
	},
	"scenes":[{
		"nodes":[0,
		2,
		3,
		4,
		5,
		8,
		11]
	}],
	"nodes":[{
		"name":"Camera Morph Setup",
		"children":[1]
	},
	{
		"name":"Morph Camera",
		"translation":[540.4220581054688,
		-1009.3643798828125,
		1095.1544189453125],
		"rotation":[-0.09501899033784867,
		-0.01061304286122322,
		0.0010130895534530283,
		-0.99541836977005],
		"scale":[1.0,
		1.0,
		1.0],
		"camera":0
	},
	{
		"name":"eye cam",
		"translation":[551.0242919921875,
		-1060.3807373046875,
		1114.9747314453125],
		"rotation":[-0.09501899033784867,
		-0.01061304286122322,
		0.001013082219287753,
		-0.99541836977005],
		"scale":[1.0,
		1.0,
		1.0],
		"camera":1
	},
	{
		"name":"your cam",
		"translation":[514.7559204101563,
		-520.0321655273438,
		1049.091064453125],
		"rotation":[-0.09501899033784867,
		-0.01061304286122322,
		0.001013082219287753,
		-0.99541836977005],
		"scale":[1.0,
		1.0,
		1.0],
		"camera":2
	},
	{
		"name":"low cam",
		"translation":[772.5596923828125,
		82.55459594726563,
		1540.710205078125],
		"rotation":[-0.09501899033784867,
		-0.01061304286122322,
		0.001013082219287753,
		-0.99541836977005],
		"scale":[1.0,
		1.0,
		1.0],
		"camera":3
	},
	{
		"name":"Extrude.2",
		"mesh":0,
		"children":[6,
		7]
	},
	{
		"name":"Cap 1",
		"translation":[0.0,
		-977.5429077148438,
		0.0],
		"rotation":[0.0,
		0.0,
		0.0,
		-1.0],
		"scale":[1.0,
		1.0,
		1.0],
		"mesh":1
	},
	{
		"name":"Cap 2",
		"translation":[0.0,
		-977.5429077148438,
		0.0],
		"rotation":[0.0,
		0.0,
		0.0,
		-1.0],
		"scale":[1.0,
		1.0,
		1.0],
		"mesh":2
	},
	{
		"name":"Extrude.1",
		"mesh":3,
		"children":[9,
		10]
	},
	{
		"name":"Cap 1",
		"translation":[0.0,
		-481.8245544433594,
		0.0],
		"rotation":[0.0,
		0.0,
		0.0,
		-1.0],
		"scale":[1.0,
		1.0,
		1.0],
		"mesh":4
	},
	{
		"name":"Cap 2",
		"translation":[0.0,
		-481.8245544433594,
		0.0],
		"rotation":[0.0,
		0.0,
		0.0,
		-1.0],
		"scale":[1.0,
		1.0,
		1.0],
		"mesh":5
	},
	{
		"name":"Extrude",
		"mesh":6,
		"children":[12,
		13]
	},
	{
		"name":"Cap 1",
		"mesh":7
	},
	{
		"name":"Cap 2",
		"mesh":8
	}],
	"meshes":[{
		"primitives":[{
			"attributes":{
				"POSITION":5,
				"NORMAL":6,
				"TEXCOORD_0":7
			},
			"indices":4,
			"material":0
		}]
	},
	{
		"primitives":[{
			"attributes":{
				"POSITION":9,
				"NORMAL":10,
				"TEXCOORD_0":11
			},
			"indices":8,
			"material":0
		}]
	},
	{
		"primitives":[{
			"attributes":{
				"POSITION":13,
				"NORMAL":14,
				"TEXCOORD_0":15
			},
			"indices":12,
			"material":0
		}]
	},
	{
		"primitives":[{
			"attributes":{
				"POSITION":17,
				"NORMAL":18,
				"TEXCOORD_0":19
			},
			"indices":16,
			"material":1
		}]
	},
	{
		"primitives":[{
			"attributes":{
				"POSITION":21,
				"NORMAL":22,
				"TEXCOORD_0":23
			},
			"indices":20,
			"material":1
		}]
	},
	{
		"primitives":[{
			"attributes":{
				"POSITION":25,
				"NORMAL":26,
				"TEXCOORD_0":27
			},
			"indices":24,
			"material":1
		}]
	},
	{
		"primitives":[{
			"attributes":{
				"POSITION":29,
				"NORMAL":30,
				"TEXCOORD_0":31
			},
			"indices":28,
			"material":2
		}]
	},
	{
		"primitives":[{
			"attributes":{
				"POSITION":33,
				"NORMAL":34,
				"TEXCOORD_0":35
			},
			"indices":32,
			"material":2
		}]
	},
	{
		"primitives":[{
			"attributes":{
				"POSITION":37,
				"NORMAL":38,
				"TEXCOORD_0":39
			},
			"indices":36,
			"material":2
		}]
	}],
	"cameras":[{
		"type":"perspective",
		"perspective":{
			"znear":0.009999999776482582,
			"zfar":10000000000.0,
			"aspectRatio":1.7777777910232545,
			"yfov":0.5483348965644836
		}
	},
	{
		"type":"perspective",
		"perspective":{
			"znear":0.009999999776482582,
			"zfar":10000000000.0,
			"aspectRatio":1.7777777910232545,
			"yfov":0.5483348965644836
		}
	},
	{
		"type":"perspective",
		"perspective":{
			"znear":0.009999999776482582,
			"zfar":10000000000.0,
			"aspectRatio":1.7777777910232545,
			"yfov":0.5483348965644836
		}
	},
	{
		"type":"perspective",
		"perspective":{
			"znear":0.009999999776482582,
			"zfar":10000000000.0,
			"aspectRatio":1.7777777910232545,
			"yfov":0.5483348965644836
		}
	}],
	"accessors":[{
		"bufferView":0,
		"byteOffset":0,
		"type":"SCALAR",
		"componentType":5126,
		"count":181,
		"min":[0.0],
		"max":[3.0]
	},
	{
		"bufferView":0,
		"byteOffset":724,
		"type":"VEC3",
		"componentType":5126,
		"count":181,
		"min":[499.3861389160156,
		-1060.3807373046875,
		1019.1021728515625],
		"max":[772.5596313476563,
		82.55447387695313,
		1540.7100830078125]
	},
	{
		"bufferView":1,
		"byteOffset":0,
		"type":"SCALAR",
		"componentType":5126,
		"count":184,
		"min":[0.0],
		"max":[3.0]
	},
	{
		"bufferView":1,
		"byteOffset":736,
		"type":"VEC4",
		"componentType":5126,
		"count":184,
		"min":[-0.09501899033784867,
		-0.09501904249191284,
		-0.001013082219287753,
		-0.99541836977005],
		"max":[0.09501899033784867,
		0.01061304286122322,
		0.99541836977005,
		0.99541836977005]
	},
	{
		"bufferView":2,
		"byteOffset":0,
		"type":"SCALAR",
		"componentType":5123,
		"count":13536,
		"min":[0],
		"max":[5397]
	},
	{
		"bufferView":3,
		"byteOffset":0,
		"type":"VEC3",
		"componentType":5126,
		"count":5398,
		"min":[17.578125,
		-1096.68359375,
		-40.0],
		"max":[1054.4921875,
		-594.3397827148438,
		0.0]
	},
	{
		"bufferView":3,
		"byteOffset":12,
		"type":"VEC3",
		"componentType":5126,
		"count":5398,
		"min":[-1.0,
		-1.0,
		0.0],
		"max":[1.0,
		1.0,
		0.0]
	},
	{
		"bufferView":3,
		"byteOffset":24,
		"type":"VEC2",
		"componentType":5126,
		"count":5398,
		"min":[0.0,
		0.0],
		"max":[1.0,
		1.0]
	},
	{
		"bufferView":4,
		"byteOffset":0,
		"type":"SCALAR",
		"componentType":5123,
		"count":6744,
		"min":[0],
		"max":[2255]
	},
	{
		"bufferView":5,
		"byteOffset":0,
		"type":"VEC3",
		"componentType":5126,
		"count":2256,
		"min":[17.578125,
		-119.140625,
		0.0],
		"max":[1054.4921875,
		383.203125,
		0.0]
	},
	{
		"bufferView":5,
		"byteOffset":12,
		"type":"VEC3",
		"componentType":5126,
		"count":2256,
		"min":[0.0,
		0.0,
		1.0],
		"max":[0.0,
		0.0,
		1.0]
	},
	{
		"bufferView":5,
		"byteOffset":24,
		"type":"VEC2",
		"componentType":5126,
		"count":2256,
		"min":[0.0,
		0.0],
		"max":[1.0,
		0.48446035385131838]
	},
	{
		"bufferView":6,
		"byteOffset":0,
		"type":"SCALAR",
		"componentType":5123,
		"count":6744,
		"min":[0],
		"max":[2255]
	},
	{
		"bufferView":7,
		"byteOffset":0,
		"type":"VEC3",
		"componentType":5126,
		"count":2256,
		"min":[17.578125,
		-119.140625,
		-40.0],
		"max":[1054.4921875,
		383.203125,
		-40.0]
	},
	{
		"bufferView":7,
		"byteOffset":12,
		"type":"VEC3",
		"componentType":5126,
		"count":2256,
		"min":[0.0,
		0.0,
		-1.0],
		"max":[0.0,
		0.0,
		-1.0]
	},
	{
		"bufferView":7,
		"byteOffset":24,
		"type":"VEC2",
		"componentType":5126,
		"count":2256,
		"min":[0.0,
		0.0],
		"max":[1.0,
		0.48446035385131838]
	},
	{
		"bufferView":8,
		"byteOffset":0,
		"type":"SCALAR",
		"componentType":5123,
		"count":12996,
		"min":[0],
		"max":[5177]
	},
	{
		"bufferView":9,
		"byteOffset":0,
		"type":"VEC3",
		"componentType":5126,
		"count":5178,
		"min":[-5.078125,
		-539.2463989257813,
		-40.0],
		"max":[989.84375,
		-96.47298431396485,
		0.0]
	},
	{
		"bufferView":9,
		"byteOffset":12,
		"type":"VEC3",
		"componentType":5126,
		"count":5178,
		"min":[-1.0,
		-1.0,
		0.0],
		"max":[1.0,
		1.0,
		0.0]
	},
	{
		"bufferView":9,
		"byteOffset":24,
		"type":"VEC2",
		"componentType":5126,
		"count":5178,
		"min":[0.0,
		0.0],
		"max":[1.0,
		1.0]
	},
	{
		"bufferView":10,
		"byteOffset":0,
		"type":"SCALAR",
		"componentType":5123,
		"count":6480,
		"min":[0],
		"max":[2165]
	},
	{
		"bufferView":11,
		"byteOffset":0,
		"type":"VEC3",
		"componentType":5126,
		"count":2166,
		"min":[-5.078125,
		-57.421875,
		0.0],
		"max":[989.84375,
		385.3515625,
		0.0]
	},
	{
		"bufferView":11,
		"byteOffset":12,
		"type":"VEC3",
		"componentType":5126,
		"count":2166,
		"min":[0.0,
		0.0,
		1.0],
		"max":[0.0,
		0.0,
		1.0]
	},
	{
		"bufferView":11,
		"byteOffset":24,
		"type":"VEC2",
		"componentType":5126,
		"count":2166,
		"min":[0.0,
		0.0],
		"max":[1.0,
		0.44503337144851687]
	},
	{
		"bufferView":12,
		"byteOffset":0,
		"type":"SCALAR",
		"componentType":5123,
		"count":6480,
		"min":[0],
		"max":[2165]
	},
	{
		"bufferView":13,
		"byteOffset":0,
		"type":"VEC3",
		"componentType":5126,
		"count":2166,
		"min":[-5.078125,
		-57.421875,
		-40.0],
		"max":[989.84375,
		385.3515625,
		-40.0]
	},
	{
		"bufferView":13,
		"byteOffset":12,
		"type":"VEC3",
		"componentType":5126,
		"count":2166,
		"min":[0.0,
		0.0,
		-1.0],
		"max":[0.0,
		0.0,
		-1.0]
	},
	{
		"bufferView":13,
		"byteOffset":24,
		"type":"VEC2",
		"componentType":5126,
		"count":2166,
		"min":[0.0,
		0.0],
		"max":[1.0,
		0.44503337144851687]
	},
	{
		"bufferView":14,
		"byteOffset":0,
		"type":"SCALAR",
		"componentType":5123,
		"count":16884,
		"min":[0],
		"max":[6803]
	},
	{
		"bufferView":15,
		"byteOffset":0,
		"type":"VEC3",
		"componentType":5126,
		"count":6804,
		"min":[16.9921875,
		-38.28125,
		-40.0],
		"max":[1444.53125,
		355.46875,
		0.0]
	},
	{
		"bufferView":15,
		"byteOffset":12,
		"type":"VEC3",
		"componentType":5126,
		"count":6804,
		"min":[-1.0,
		-1.0,
		0.0],
		"max":[1.0,
		1.0,
		0.0]
	},
	{
		"bufferView":15,
		"byteOffset":24,
		"type":"VEC2",
		"componentType":5126,
		"count":6804,
		"min":[0.0,
		0.0],
		"max":[1.0,
		1.0]
	},
	{
		"bufferView":16,
		"byteOffset":0,
		"type":"SCALAR",
		"componentType":5123,
		"count":8418,
		"min":[0],
		"max":[2813]
	},
	{
		"bufferView":17,
		"byteOffset":0,
		"type":"VEC3",
		"componentType":5126,
		"count":2814,
		"min":[16.9921875,
		-38.28125,
		0.0],
		"max":[1444.53125,
		355.46875,
		0.0]
	},
	{
		"bufferView":17,
		"byteOffset":12,
		"type":"VEC3",
		"componentType":5126,
		"count":2814,
		"min":[0.0,
		0.0,
		1.0],
		"max":[0.0,
		0.0,
		1.0]
	},
	{
		"bufferView":17,
		"byteOffset":24,
		"type":"VEC2",
		"componentType":5126,
		"count":2814,
		"min":[0.0,
		0.0],
		"max":[1.0,
		0.27582430839538576]
	},
	{
		"bufferView":18,
		"byteOffset":0,
		"type":"SCALAR",
		"componentType":5123,
		"count":8418,
		"min":[0],
		"max":[2813]
	},
	{
		"bufferView":19,
		"byteOffset":0,
		"type":"VEC3",
		"componentType":5126,
		"count":2814,
		"min":[16.9921875,
		-38.28125,
		-40.0],
		"max":[1444.53125,
		355.46875,
		-40.0]
	},
	{
		"bufferView":19,
		"byteOffset":12,
		"type":"VEC3",
		"componentType":5126,
		"count":2814,
		"min":[0.0,
		0.0,
		-1.0],
		"max":[0.0,
		0.0,
		-1.0]
	},
	{
		"bufferView":19,
		"byteOffset":24,
		"type":"VEC2",
		"componentType":5126,
		"count":2814,
		"min":[0.0,
		0.0],
		"max":[1.0,
		0.27582430839538576]
	}],
	"bufferViews":[{
		"buffer":0,
		"byteOffset":0,
		"byteLength":2896
	},
	{
		"buffer":0,
		"byteOffset":2896,
		"byteLength":3680
	},
	{
		"buffer":1,
		"byteOffset":0,
		"byteLength":27072,
		"target":34963
	},
	{
		"buffer":1,
		"byteOffset":27072,
		"byteLength":172736,
		"target":34962,
		"byteStride":32
	},
	{
		"buffer":2,
		"byteOffset":0,
		"byteLength":13488,
		"target":34963
	},
	{
		"buffer":2,
		"byteOffset":13488,
		"byteLength":72192,
		"target":34962,
		"byteStride":32
	},
	{
		"buffer":3,
		"byteOffset":0,
		"byteLength":13488,
		"target":34963
	},
	{
		"buffer":3,
		"byteOffset":13488,
		"byteLength":72192,
		"target":34962,
		"byteStride":32
	},
	{
		"buffer":4,
		"byteOffset":0,
		"byteLength":25992,
		"target":34963
	},
	{
		"buffer":4,
		"byteOffset":25992,
		"byteLength":165696,
		"target":34962,
		"byteStride":32
	},
	{
		"buffer":5,
		"byteOffset":0,
		"byteLength":12960,
		"target":34963
	},
	{
		"buffer":5,
		"byteOffset":12960,
		"byteLength":69312,
		"target":34962,
		"byteStride":32
	},
	{
		"buffer":6,
		"byteOffset":0,
		"byteLength":12960,
		"target":34963
	},
	{
		"buffer":6,
		"byteOffset":12960,
		"byteLength":69312,
		"target":34962,
		"byteStride":32
	},
	{
		"buffer":7,
		"byteOffset":0,
		"byteLength":33768,
		"target":34963
	},
	{
		"buffer":7,
		"byteOffset":33768,
		"byteLength":217728,
		"target":34962,
		"byteStride":32
	},
	{
		"buffer":8,
		"byteOffset":0,
		"byteLength":16836,
		"target":34963
	},
	{
		"buffer":8,
		"byteOffset":16836,
		"byteLength":90048,
		"target":34962,
		"byteStride":32
	},
	{
		"buffer":9,
		"byteOffset":0,
		"byteLength":16836,
		"target":34963
	},
	{
		"buffer":9,
		"byteOffset":16836,
		"byteLength":90048,
		"target":34962,
		"byteStride":32
	}],
	"buffers":[{
		"uri":"data:application/octet-stream;base64,",
		"byteLength":6576
	},
	{
		"uri":"data:application/octet-stream;base64,",
		"byteLength":199808
	},
	{
		"uri":"data:application/octet-stream;base64,",
		"byteLength":85680
	},
	{
		"uri":"data:application/octet-stream;base64,",
		"byteLength":85680
	},
	{
		"uri":"data:application/octet-stream;base64,",
		"byteLength":191688
	},
	{
		"uri":"data:application/octet-stream;base64,",
		"byteLength":82272
	},
	{
		"uri":"data:application/octet-stream;base64,",
		"byteLength":82272
	},
	{
		"uri":"data:application/octet-stream;base64,",
		"byteLength":251496
	},
	{
		"uri":"data:application/octet-stream;base64,",
		"byteLength":106884
	},
	{
		"uri":"data:application/octet-stream;base64,",
		"byteLength":106884
	}],
	"materials":[{
		"pbrMetallicRoughness":{
			"baseColorFactor":[0.62,
			0.3968,
			0.48608000000000009,
			1.0],
			"metallicFactor":0.0,
			"roughnessFactor":0.5
		},
		"emissiveFactor":[0.0,
		0.0,
		0.0],
		"alphaMode":"OPAQUE",
		"doubleSided":false,
		"name":"Mat.2"
	},
	{
		"pbrMetallicRoughness":{
			"baseColorFactor":[0.8,
			0.3120000000000001,
			0.3120000000000001,
			1.0],
			"metallicFactor":0.0,
			"roughnessFactor":0.5
		},
		"emissiveFactor":[0.0,
		0.0,
		0.0],
		"alphaMode":"OPAQUE",
		"doubleSided":false,
		"name":"Mat.1"
	},
	{
		"pbrMetallicRoughness":{
			"baseColorFactor":[0.8,
			0.016000000000000015,
			0.016000000000000015,
			1.0],
			"metallicFactor":0.0,
			"roughnessFactor":0.5
		},
		"emissiveFactor":[0.0,
		0.0,
		0.0],
		"alphaMode":"OPAQUE",
		"doubleSided":false,
		"name":"Mat"
	}],
	"animations":[{
		"samplers":[{
			"input":0,
			"interpolation":"LINEAR",
			"output":1
		},
		{
			"input":2,
			"interpolation":"LINEAR",
			"output":3
		}],
		"channels":[{
			"sampler":0,
			"target":{
				"node":1,
				"path":"translation"
			}
		},
		{
			"sampler":1,
			"target":{
				"node":1,
				"path":"rotation"
			}
		}]
	}]
}