{
	"asset":{
		"version":"2.0",
		"generator":"Created using the official Cinema 4D glTF Exporter 1.000x287587"
	},
	"scenes":[{
		"nodes":[0,
		2,
		3,
		4,
		5,
		8,
		11]
	}],
	"nodes":[{
		"name":"Camera Morph Setup",
		"children":[1]
	},
	{
		"name":"Morph Camera",
		"translation":[-357.49884033203127,
		-618.480712890625,
		-688.244873046875],
		"rotation":[0.010059717111289502,
		-0.9841225147247315,
		0.16762219369411469,
		0.05748428776860237],
		"scale":[1.0,
		1.0,
		1.0],
		"camera":0
	},
	{
		"name":"eyes cam",
		"translation":[-358.2655029296875,
		-619.1569213867188,
		-688.9208984375],
		"rotation":[0.00984782911837101,
		-0.9840859770774841,
		0.16775086522102357,
		0.057770851999521258],
		"scale":[1.0,
		1.0,
		1.0],
		"camera":1
	},
	{
		"name":"your cam",
		"translation":[494.5874328613281,
		167.9588623046875,
		45.3504638671875],
		"rotation":[0.20795251429080964,
		-0.475482702255249,
		-0.11676914244890213,
		-0.8467803001403809],
		"scale":[1.0,
		1.0,
		1.0],
		"camera":2
	},
	{
		"name":"low cam",
		"translation":[586.4598388671875,
		423.537109375,
		37.711669921875],
		"rotation":[0.20795251429080964,
		-0.475482702255249,
		-0.11676914244890213,
		-0.8467803001403809],
		"scale":[1.0,
		1.0,
		1.0],
		"camera":3
	},
	{
		"name":"Extrude.2",
		"mesh":0,
		"children":[6,
		7]
	},
	{
		"name":"Cap 1",
		"translation":[0.0,
		-488.7714538574219,
		0.0],
		"rotation":[0.0,
		-1.0,
		0.0,
		-6.123234262925839e-17],
		"scale":[1.0,
		1.0,
		1.0],
		"mesh":1
	},
	{
		"name":"Cap 2",
		"translation":[0.0,
		-488.7714538574219,
		0.0],
		"rotation":[0.0,
		-1.0,
		0.0,
		-6.123234262925839e-17],
		"scale":[1.0,
		1.0,
		1.0],
		"mesh":2
	},
	{
		"name":"Extrude.1",
		"mesh":3,
		"children":[9,
		10]
	},
	{
		"name":"Cap 1",
		"translation":[0.0,
		-240.9122772216797,
		0.0],
		"rotation":[0.0,
		-0.7071067690849304,
		0.0,
		-0.7071067690849304],
		"scale":[1.0,
		1.0,
		1.0],
		"mesh":4
	},
	{
		"name":"Cap 2",
		"translation":[0.0,
		-240.9122772216797,
		0.0],
		"rotation":[0.0,
		-0.7071067690849304,
		0.0,
		-0.7071067690849304],
		"scale":[1.0,
		1.0,
		1.0],
		"mesh":5
	},
	{
		"name":"Extrude",
		"mesh":6,
		"children":[12,
		13]
	},
	{
		"name":"Cap 1",
		"translation":[0.0,
		0.0,
		0.0],
		"rotation":[0.0,
		-0.7071067690849304,
		0.0,
		-0.7071067690849304],
		"scale":[1.0,
		1.0,
		1.0],
		"mesh":7
	},
	{
		"name":"Cap 2",
		"translation":[0.0,
		0.0,
		0.0],
		"rotation":[0.0,
		-0.7071067690849304,
		0.0,
		-0.7071067690849304],
		"scale":[1.0,
		1.0,
		1.0],
		"mesh":8
	}],
	"meshes":[{
		"primitives":[{
			"attributes":{
				"POSITION":1,
				"NORMAL":2,
				"TEXCOORD_0":3
			},
			"indices":0,
			"material":0
		}]
	},
	{
		"primitives":[{
			"attributes":{
				"POSITION":5,
				"NORMAL":6,
				"TEXCOORD_0":7
			},
			"indices":4,
			"material":0
		}]
	},
	{
		"primitives":[{
			"attributes":{
				"POSITION":9,
				"NORMAL":10,
				"TEXCOORD_0":11
			},
			"indices":8,
			"material":0
		}]
	},
	{
		"primitives":[{
			"attributes":{
				"POSITION":13,
				"NORMAL":14,
				"TEXCOORD_0":15
			},
			"indices":12,
			"material":1
		}]
	},
	{
		"primitives":[{
			"attributes":{
				"POSITION":17,
				"NORMAL":18,
				"TEXCOORD_0":19
			},
			"indices":16,
			"material":1
		}]
	},
	{
		"primitives":[{
			"attributes":{
				"POSITION":21,
				"NORMAL":22,
				"TEXCOORD_0":23
			},
			"indices":20,
			"material":1
		}]
	},
	{
		"primitives":[{
			"attributes":{
				"POSITION":25,
				"NORMAL":26,
				"TEXCOORD_0":27
			},
			"indices":24,
			"material":2
		}]
	},
	{
		"primitives":[{
			"attributes":{
				"POSITION":29,
				"NORMAL":30,
				"TEXCOORD_0":31
			},
			"indices":28,
			"material":2
		}]
	},
	{
		"primitives":[{
			"attributes":{
				"POSITION":33,
				"NORMAL":34,
				"TEXCOORD_0":35
			},
			"indices":32,
			"material":2
		}]
	}],
	"cameras":[{
		"type":"perspective",
		"perspective":{
			"znear":0.009999999776482582,
			"zfar":10000000000.0,
			"aspectRatio":1.7777777910232545,
			"yfov":0.5483348965644836
		}
	},
	{
		"type":"perspective",
		"perspective":{
			"znear":0.009999999776482582,
			"zfar":10000000000.0,
			"aspectRatio":1.7777777910232545,
			"yfov":0.5483348965644836
		}
	},
	{
		"type":"perspective",
		"perspective":{
			"znear":0.009999999776482582,
			"zfar":10000000000.0,
			"aspectRatio":1.7777777910232545,
			"yfov":0.5483348965644836
		}
	},
	{
		"type":"perspective",
		"perspective":{
			"znear":0.009999999776482582,
			"zfar":10000000000.0,
			"aspectRatio":1.7777777910232545,
			"yfov":0.5483348965644836
		}
	}],
	"accessors":[{
		"bufferView":0,
		"byteOffset":0,
		"type":"SCALAR",
		"componentType":5123,
		"count":13536,
		"min":[0],
		"max":[5235]
	},
	{
		"bufferView":1,
		"byteOffset":0,
		"type":"VEC3",
		"componentType":5126,
		"count":5236,
		"min":[-527.24609375,
		-548.341796875,
		-20.0],
		"max":[-8.7890625,
		-297.1698913574219,
		-1.0763497535479835e-15]
	},
	{
		"bufferView":1,
		"byteOffset":12,
		"type":"VEC3",
		"componentType":5126,
		"count":5236,
		"min":[-1.0,
		-1.0,
		0.0],
		"max":[1.0,
		1.0,
		0.0]
	},
	{
		"bufferView":1,
		"byteOffset":24,
		"type":"VEC2",
		"componentType":5126,
		"count":5236,
		"min":[0.0,
		0.0],
		"max":[1.0,
		1.0]
	},
	{
		"bufferView":2,
		"byteOffset":0,
		"type":"SCALAR",
		"componentType":5123,
		"count":6744,
		"min":[0],
		"max":[2255]
	},
	{
		"bufferView":3,
		"byteOffset":0,
		"type":"VEC3",
		"componentType":5126,
		"count":2256,
		"min":[8.7890625,
		-59.5703125,
		0.0],
		"max":[527.24609375,
		191.6015625,
		0.0]
	},
	{
		"bufferView":3,
		"byteOffset":12,
		"type":"VEC3",
		"componentType":5126,
		"count":2256,
		"min":[0.0,
		0.0,
		-1.0],
		"max":[0.0,
		0.0,
		-1.0]
	},
	{
		"bufferView":3,
		"byteOffset":24,
		"type":"VEC2",
		"componentType":5126,
		"count":2256,
		"min":[0.0,
		0.0],
		"max":[1.0,
		0.48446035385131838]
	},
	{
		"bufferView":4,
		"byteOffset":0,
		"type":"SCALAR",
		"componentType":5123,
		"count":6744,
		"min":[0],
		"max":[2255]
	},
	{
		"bufferView":5,
		"byteOffset":0,
		"type":"VEC3",
		"componentType":5126,
		"count":2256,
		"min":[8.7890625,
		-59.5703125,
		20.0],
		"max":[527.24609375,
		191.6015625,
		20.0]
	},
	{
		"bufferView":5,
		"byteOffset":12,
		"type":"VEC3",
		"componentType":5126,
		"count":2256,
		"min":[0.0,
		0.0,
		1.0],
		"max":[0.0,
		0.0,
		1.0]
	},
	{
		"bufferView":5,
		"byteOffset":24,
		"type":"VEC2",
		"componentType":5126,
		"count":2256,
		"min":[0.0,
		0.0],
		"max":[1.0,
		0.48446035385131838]
	},
	{
		"bufferView":6,
		"byteOffset":0,
		"type":"SCALAR",
		"componentType":5123,
		"count":12996,
		"min":[0],
		"max":[5182]
	},
	{
		"bufferView":7,
		"byteOffset":0,
		"type":"VEC3",
		"componentType":5126,
		"count":5183,
		"min":[-1.5547273864984922e-16,
		-269.6231994628906,
		-514.921875],
		"max":[3.0305226102027297e-14,
		-48.23649215698242,
		2.5390625]
	},
	{
		"bufferView":7,
		"byteOffset":12,
		"type":"VEC3",
		"componentType":5126,
		"count":5183,
		"min":[-1.0,
		-1.0,
		0.0],
		"max":[1.0,
		1.0,
		0.0]
	},
	{
		"bufferView":7,
		"byteOffset":24,
		"type":"VEC2",
		"componentType":5126,
		"count":5183,
		"min":[0.0,
		0.0],
		"max":[1.0,
		1.0]
	},
	{
		"bufferView":8,
		"byteOffset":0,
		"type":"SCALAR",
		"componentType":5123,
		"count":6480,
		"min":[0],
		"max":[2165]
	},
	{
		"bufferView":9,
		"byteOffset":0,
		"type":"VEC3",
		"componentType":5126,
		"count":2166,
		"min":[-2.5390625,
		-28.7109375,
		0.0],
		"max":[494.921875,
		192.67578125,
		0.0]
	},
	{
		"bufferView":9,
		"byteOffset":12,
		"type":"VEC3",
		"componentType":5126,
		"count":2166,
		"min":[0.0,
		0.0,
		1.0],
		"max":[0.0,
		0.0,
		1.0]
	},
	{
		"bufferView":9,
		"byteOffset":24,
		"type":"VEC2",
		"componentType":5126,
		"count":2166,
		"min":[0.0,
		0.0],
		"max":[1.0,
		0.44503337144851687]
	},
	{
		"bufferView":10,
		"byteOffset":0,
		"type":"SCALAR",
		"componentType":5123,
		"count":6480,
		"min":[0],
		"max":[2165]
	},
	{
		"bufferView":11,
		"byteOffset":0,
		"type":"VEC3",
		"componentType":5126,
		"count":2166,
		"min":[17.4609375,
		-28.7109375,
		-1.2246467996456087e-15],
		"max":[514.921875,
		192.67578125,
		-1.2246467996456087e-15]
	},
	{
		"bufferView":11,
		"byteOffset":12,
		"type":"VEC3",
		"componentType":5126,
		"count":2166,
		"min":[0.0,
		0.0,
		-1.0],
		"max":[0.0,
		0.0,
		-1.0]
	},
	{
		"bufferView":11,
		"byteOffset":24,
		"type":"VEC2",
		"componentType":5126,
		"count":2166,
		"min":[0.0,
		0.0],
		"max":[1.0,
		0.9589649438858032]
	},
	{
		"bufferView":12,
		"byteOffset":0,
		"type":"SCALAR",
		"componentType":5123,
		"count":16884,
		"min":[0],
		"max":[6814]
	},
	{
		"bufferView":13,
		"byteOffset":0,
		"type":"VEC3",
		"componentType":5126,
		"count":6815,
		"min":[5.202357248027705e-16,
		-19.140625,
		-742.265625],
		"max":[4.422601269037617e-14,
		177.734375,
		-8.49609375]
	},
	{
		"bufferView":13,
		"byteOffset":12,
		"type":"VEC3",
		"componentType":5126,
		"count":6815,
		"min":[-1.0,
		-1.0,
		0.0],
		"max":[1.0,
		1.0,
		0.0]
	},
	{
		"bufferView":13,
		"byteOffset":24,
		"type":"VEC2",
		"componentType":5126,
		"count":6815,
		"min":[0.0,
		0.0],
		"max":[1.0,
		1.0]
	},
	{
		"bufferView":14,
		"byteOffset":0,
		"type":"SCALAR",
		"componentType":5123,
		"count":8418,
		"min":[0],
		"max":[2813]
	},
	{
		"bufferView":15,
		"byteOffset":0,
		"type":"VEC3",
		"componentType":5126,
		"count":2814,
		"min":[8.49609375,
		-19.140625,
		0.0],
		"max":[722.265625,
		177.734375,
		0.0]
	},
	{
		"bufferView":15,
		"byteOffset":12,
		"type":"VEC3",
		"componentType":5126,
		"count":2814,
		"min":[0.0,
		0.0,
		1.0],
		"max":[0.0,
		0.0,
		1.0]
	},
	{
		"bufferView":15,
		"byteOffset":24,
		"type":"VEC2",
		"componentType":5126,
		"count":2814,
		"min":[0.0,
		0.0],
		"max":[1.0,
		0.27582430839538576]
	},
	{
		"bufferView":16,
		"byteOffset":0,
		"type":"SCALAR",
		"componentType":5123,
		"count":8418,
		"min":[0],
		"max":[2813]
	},
	{
		"bufferView":17,
		"byteOffset":0,
		"type":"VEC3",
		"componentType":5126,
		"count":2814,
		"min":[28.49609375,
		-19.140625,
		-1.2246467996456087e-15],
		"max":[742.265625,
		177.734375,
		-1.2246467996456087e-15]
	},
	{
		"bufferView":17,
		"byteOffset":12,
		"type":"VEC3",
		"componentType":5126,
		"count":2814,
		"min":[0.0,
		0.0,
		-1.0],
		"max":[2.344339370912355e-32,
		2.1971367096247719e-31,
		-1.0]
	},
	{
		"bufferView":17,
		"byteOffset":24,
		"type":"VEC2",
		"componentType":5126,
		"count":2814,
		"min":[0.0,
		0.0],
		"max":[1.0,
		0.49036991596221926]
	}],
	"bufferViews":[{
		"buffer":0,
		"byteOffset":0,
		"byteLength":27072,
		"target":34963
	},
	{
		"buffer":0,
		"byteOffset":27072,
		"byteLength":167552,
		"target":34962,
		"byteStride":32
	},
	{
		"buffer":1,
		"byteOffset":0,
		"byteLength":13488,
		"target":34963
	},
	{
		"buffer":1,
		"byteOffset":13488,
		"byteLength":72192,
		"target":34962,
		"byteStride":32
	},
	{
		"buffer":2,
		"byteOffset":0,
		"byteLength":13488,
		"target":34963
	},
	{
		"buffer":2,
		"byteOffset":13488,
		"byteLength":72192,
		"target":34962,
		"byteStride":32
	},
	{
		"buffer":3,
		"byteOffset":0,
		"byteLength":25992,
		"target":34963
	},
	{
		"buffer":3,
		"byteOffset":25992,
		"byteLength":165856,
		"target":34962,
		"byteStride":32
	},
	{
		"buffer":4,
		"byteOffset":0,
		"byteLength":12960,
		"target":34963
	},
	{
		"buffer":4,
		"byteOffset":12960,
		"byteLength":69312,
		"target":34962,
		"byteStride":32
	},
	{
		"buffer":5,
		"byteOffset":0,
		"byteLength":12960,
		"target":34963
	},
	{
		"buffer":5,
		"byteOffset":12960,
		"byteLength":69312,
		"target":34962,
		"byteStride":32
	},
	{
		"buffer":6,
		"byteOffset":0,
		"byteLength":33768,
		"target":34963
	},
	{
		"buffer":6,
		"byteOffset":33768,
		"byteLength":218080,
		"target":34962,
		"byteStride":32
	},
	{
		"buffer":7,
		"byteOffset":0,
		"byteLength":16836,
		"target":34963
	},
	{
		"buffer":7,
		"byteOffset":16836,
		"byteLength":90048,
		"target":34962,
		"byteStride":32
	},
	{
		"buffer":8,
		"byteOffset":0,
		"byteLength":16836,
		"target":34963
	},
	{
		"buffer":8,
		"byteOffset":16836,
		"byteLength":90048,
		"target":34962,
		"byteStride":32
	}],
	"buffers":[{
		"uri":"data:application/octet-stream;base64,",
		"byteLength":194624
	},
	{
		"uri":"data:application/octet-stream;base64,",
		"byteLength":85680
	},
	{
		"uri":"data:application/octet-stream;base64,",
		"byteLength":85680
	},
	{
		"uri":"data:application/octet-stream;base64,",
		"byteLength":191848
	},
	{
		"uri":"data:application/octet-stream;base64,",
		"byteLength":82272
	},
	{
		"uri":"data:application/octet-stream;base64,",
		"byteLength":82272
	},
	{
		"uri":"data:application/octet-stream;base64,",
		"byteLength":251848
	},
	{
		"uri":"data:application/octet-stream;base64,",
		"byteLength":106884
	},
	{
		"uri":"data:application/octet-stream;base64,",
		"byteLength":106884
	}],
	"materials":[{
		"pbrMetallicRoughness":{
			"baseColorFactor":[0.62,
			0.3968,
			0.48608000000000009,
			1.0],
			"metallicFactor":0.0,
			"roughnessFactor":0.5
		},
		"emissiveFactor":[0.0,
		0.0,
		0.0],
		"alphaMode":"OPAQUE",
		"doubleSided":false,
		"name":"Mat.2"
	},
	{
		"pbrMetallicRoughness":{
			"baseColorFactor":[0.8,
			0.3120000000000001,
			0.3120000000000001,
			1.0],
			"metallicFactor":0.0,
			"roughnessFactor":0.5
		},
		"emissiveFactor":[0.0,
		0.0,
		0.0],
		"alphaMode":"OPAQUE",
		"doubleSided":false,
		"name":"Mat.1"
	},
	{
		"pbrMetallicRoughness":{
			"baseColorFactor":[0.8,
			0.016000000000000015,
			0.016000000000000015,
			1.0],
			"metallicFactor":0.0,
			"roughnessFactor":0.5
		},
		"emissiveFactor":[0.0,
		0.0,
		0.0],
		"alphaMode":"OPAQUE",
		"doubleSided":false,
		"name":"Mat"
	}]
}