{
	"asset":{
		"version":"2.0",
		"generator":"Created using the official Cinema 4D glTF Exporter 1.000x287587"
	},
	"scenes":[{
		"nodes":[0,
		2,
		3,
		4,
		5,
		8,
		11]
	}],
	"nodes":[{
		"name":"Camera Morph Setup",
		"children":[1]
	},
	{
		"name":"Morph Camera",
		"translation":[343.3978271484375,
		1219.0069580078125,
		-229.06466674804688],
		"rotation":[0.009948359802365303,
		-0.7544300556182861,
		-0.6562053561210632,
		-0.011437489651143551],
		"scale":[1.0,
		1.0,
		1.0],
		"camera":0
	},
	{
		"name":"eye cam",
		"translation":[343.3978271484375,
		1219.0069580078125,
		-229.06466674804688],
		"rotation":[0.009948359802365303,
		-0.7544300556182861,
		-0.6562053561210632,
		-0.011437489651143551],
		"scale":[1.0,
		1.0,
		1.0],
		"camera":1
	},
	{
		"name":"Camera",
		"translation":[352.8835144042969,
		946.4697875976563,
		101.58246612548828],
		"rotation":[0.009948359802365303,
		-0.7544300556182861,
		-0.6562053561210632,
		-0.011437489651143551],
		"scale":[1.0,
		1.0,
		1.0],
		"camera":2
	},
	{
		"name":"Low cam",
		"translation":[358.0357666015625,
		754.723876953125,
		336.3921203613281],
		"rotation":[0.009948359802365303,
		-0.7544300556182861,
		-0.6562053561210632,
		-0.011437489651143551],
		"scale":[1.0,
		1.0,
		1.0],
		"camera":3
	},
	{
		"name":"Extrude.2",
		"translation":[0.0,
		0.0,
		0.0],
		"rotation":[0.0,
		0.0,
		1.0,
		-6.123234262925839e-17],
		"scale":[1.0,
		1.0,
		1.0],
		"mesh":0,
		"children":[6,
		7]
	},
	{
		"name":"Cap 1",
		"translation":[4.0347977373457816e-14,
		0.0,
		-329.46624755859377],
		"rotation":[0.0,
		-1.0,
		0.0,
		-6.123234262925839e-17],
		"scale":[1.0,
		1.0,
		1.0],
		"mesh":1
	},
	{
		"name":"Cap 2",
		"translation":[4.0347977373457816e-14,
		0.0,
		-329.46624755859377],
		"rotation":[0.0,
		-1.0,
		0.0,
		-6.123234262925839e-17],
		"scale":[1.0,
		1.0,
		1.0],
		"mesh":2
	},
	{
		"name":"Extrude.1",
		"mesh":3,
		"children":[9,
		10]
	},
	{
		"name":"Cap 1",
		"translation":[0.0,
		0.0,
		0.0],
		"rotation":[1.0,
		-6.123234262925839e-17,
		6.123234262925839e-17,
		-6.123234262925839e-17],
		"scale":[1.0,
		1.0,
		1.0],
		"mesh":4
	},
	{
		"name":"Cap 2",
		"translation":[0.0,
		0.0,
		0.0],
		"rotation":[1.0,
		-6.123234262925839e-17,
		6.123234262925839e-17,
		-6.123234262925839e-17],
		"scale":[1.0,
		1.0,
		1.0],
		"mesh":5
	},
	{
		"name":"Extrude",
		"translation":[-6.256435394287109,
		9.966327667236329,
		71.0607681274414],
		"rotation":[0.0,
		0.0,
		0.0,
		-1.0],
		"scale":[1.0,
		1.0,
		1.0],
		"mesh":6,
		"children":[12,
		13]
	},
	{
		"name":"Cap 1",
		"translation":[-3.554037083077291e-14,
		0.0,
		290.2091369628906],
		"rotation":[1.0,
		-6.123234262925839e-17,
		6.123234262925839e-17,
		-6.123234262925839e-17],
		"scale":[1.0,
		1.0,
		1.0],
		"mesh":7
	},
	{
		"name":"Cap 2",
		"translation":[-3.554037083077291e-14,
		0.0,
		290.2091369628906],
		"rotation":[1.0,
		-6.123234262925839e-17,
		6.123234262925839e-17,
		-6.123234262925839e-17],
		"scale":[1.0,
		1.0,
		1.0],
		"mesh":8
	}],
	"meshes":[{
		"primitives":[{
			"attributes":{
				"POSITION":1,
				"NORMAL":2,
				"TEXCOORD_0":3
			},
			"indices":0,
			"material":0
		}]
	},
	{
		"primitives":[{
			"attributes":{
				"POSITION":5,
				"NORMAL":6,
				"TEXCOORD_0":7
			},
			"indices":4,
			"material":0
		}]
	},
	{
		"primitives":[{
			"attributes":{
				"POSITION":9,
				"NORMAL":10,
				"TEXCOORD_0":11
			},
			"indices":8,
			"material":0
		}]
	},
	{
		"primitives":[{
			"attributes":{
				"POSITION":13,
				"NORMAL":14,
				"TEXCOORD_0":15
			},
			"indices":12,
			"material":1
		}]
	},
	{
		"primitives":[{
			"attributes":{
				"POSITION":17,
				"NORMAL":18,
				"TEXCOORD_0":19
			},
			"indices":16,
			"material":1
		}]
	},
	{
		"primitives":[{
			"attributes":{
				"POSITION":21,
				"NORMAL":22,
				"TEXCOORD_0":23
			},
			"indices":20,
			"material":1
		}]
	},
	{
		"primitives":[{
			"attributes":{
				"POSITION":25,
				"NORMAL":26,
				"TEXCOORD_0":27
			},
			"indices":24,
			"material":2
		}]
	},
	{
		"primitives":[{
			"attributes":{
				"POSITION":29,
				"NORMAL":30,
				"TEXCOORD_0":31
			},
			"indices":28,
			"material":2
		}]
	},
	{
		"primitives":[{
			"attributes":{
				"POSITION":33,
				"NORMAL":34,
				"TEXCOORD_0":35
			},
			"indices":32,
			"material":2
		}]
	}],
	"cameras":[{
		"type":"perspective",
		"perspective":{
			"znear":0.009999999776482582,
			"zfar":10000000000.0,
			"aspectRatio":1.7777777910232545,
			"yfov":0.5483348965644836
		}
	},
	{
		"type":"perspective",
		"perspective":{
			"znear":0.009999999776482582,
			"zfar":10000000000.0,
			"aspectRatio":1.7777777910232545,
			"yfov":0.5483348965644836
		}
	},
	{
		"type":"perspective",
		"perspective":{
			"znear":0.009999999776482582,
			"zfar":10000000000.0,
			"aspectRatio":1.7777777910232545,
			"yfov":0.5483348965644836
		}
	},
	{
		"type":"perspective",
		"perspective":{
			"znear":0.009999999776482582,
			"zfar":10000000000.0,
			"aspectRatio":1.7777777910232545,
			"yfov":0.5483348965644836
		}
	}],
	"accessors":[{
		"bufferView":0,
		"byteOffset":0,
		"type":"SCALAR",
		"componentType":5123,
		"count":13536,
		"min":[0],
		"max":[5247]
	},
	{
		"bufferView":1,
		"byteOffset":0,
		"type":"VEC3",
		"componentType":5126,
		"count":5248,
		"min":[-527.24609375,
		0.0,
		-409.03656005859377],
		"max":[-8.7890625,
		0.0,
		-137.8646697998047]
	},
	{
		"bufferView":1,
		"byteOffset":12,
		"type":"VEC3",
		"componentType":5126,
		"count":5248,
		"min":[0.0,
		-1.0,
		0.0],
		"max":[0.0,
		1.0,
		0.0]
	},
	{
		"bufferView":1,
		"byteOffset":24,
		"type":"VEC2",
		"componentType":5126,
		"count":5248,
		"min":[0.0,
		0.0],
		"max":[1.0,
		1.0]
	},
	{
		"bufferView":2,
		"byteOffset":0,
		"type":"SCALAR",
		"componentType":5123,
		"count":6744,
		"min":[0],
		"max":[2255]
	},
	{
		"bufferView":3,
		"byteOffset":0,
		"type":"VEC3",
		"componentType":5126,
		"count":2256,
		"min":[8.7890625,
		0.0,
		-191.6015625],
		"max":[527.24609375,
		0.0,
		59.5703125]
	},
	{
		"bufferView":3,
		"byteOffset":12,
		"type":"VEC3",
		"componentType":5126,
		"count":2256,
		"min":[0.0,
		1.0,
		0.0],
		"max":[0.0,
		1.0,
		0.0]
	},
	{
		"bufferView":3,
		"byteOffset":24,
		"type":"VEC2",
		"componentType":5126,
		"count":2256,
		"min":[0.0,
		0.0],
		"max":[1.0,
		0.48446035385131838]
	},
	{
		"bufferView":4,
		"byteOffset":0,
		"type":"SCALAR",
		"componentType":5123,
		"count":6744,
		"min":[0],
		"max":[2255]
	},
	{
		"bufferView":5,
		"byteOffset":0,
		"type":"VEC3",
		"componentType":5126,
		"count":2256,
		"min":[8.7890625,
		0.0,
		-171.6015625],
		"max":[527.24609375,
		0.0,
		79.5703125]
	},
	{
		"bufferView":5,
		"byteOffset":12,
		"type":"VEC3",
		"componentType":5126,
		"count":2256,
		"min":[0.0,
		1.0,
		0.0],
		"max":[0.0,
		1.0,
		0.0]
	},
	{
		"bufferView":5,
		"byteOffset":24,
		"type":"VEC2",
		"componentType":5126,
		"count":2256,
		"min":[0.0,
		0.0],
		"max":[1.0,
		0.48446035385131838]
	},
	{
		"bufferView":6,
		"byteOffset":0,
		"type":"SCALAR",
		"componentType":5123,
		"count":12996,
		"min":[0],
		"max":[5011]
	},
	{
		"bufferView":7,
		"byteOffset":0,
		"type":"VEC3",
		"componentType":5126,
		"count":5012,
		"min":[-2.5390625,
		-6.061045220405459e-14,
		-48.7109375],
		"max":[494.921875,
		3.1094547729969845e-16,
		192.67578125]
	},
	{
		"bufferView":7,
		"byteOffset":12,
		"type":"VEC3",
		"componentType":5126,
		"count":5012,
		"min":[-1.229562952401693e-16,
		-1.0,
		0.0],
		"max":[1.228705331542598e-16,
		1.0,
		0.0]
	},
	{
		"bufferView":7,
		"byteOffset":24,
		"type":"VEC2",
		"componentType":5126,
		"count":5012,
		"min":[0.0,
		0.0],
		"max":[1.0,
		1.0]
	},
	{
		"bufferView":8,
		"byteOffset":0,
		"type":"SCALAR",
		"componentType":5123,
		"count":6480,
		"min":[0],
		"max":[2165]
	},
	{
		"bufferView":9,
		"byteOffset":0,
		"type":"VEC3",
		"componentType":5126,
		"count":2166,
		"min":[-2.5390625,
		-2.5381676512220555e-30,
		-192.67578125],
		"max":[494.921875,
		2.247692840862677e-30,
		28.7109375]
	},
	{
		"bufferView":9,
		"byteOffset":12,
		"type":"VEC3",
		"componentType":5126,
		"count":2166,
		"min":[-2.241507288025938e-28,
		-1.0,
		-1.833525390473616e-28],
		"max":[2.556660565965011e-29,
		1.0,
		2.2412398245049114e-28]
	},
	{
		"bufferView":9,
		"byteOffset":24,
		"type":"VEC2",
		"componentType":5126,
		"count":2166,
		"min":[0.0,
		0.0],
		"max":[1.0,
		0.44503337144851687]
	},
	{
		"bufferView":10,
		"byteOffset":0,
		"type":"SCALAR",
		"componentType":5123,
		"count":6480,
		"min":[0],
		"max":[2165]
	},
	{
		"bufferView":11,
		"byteOffset":0,
		"type":"VEC3",
		"componentType":5126,
		"count":2166,
		"min":[-2.5390625,
		-2.2382157232877036e-30,
		-172.67578125],
		"max":[494.921875,
		2.547644956876125e-30,
		48.7109375]
	},
	{
		"bufferView":11,
		"byteOffset":12,
		"type":"VEC3",
		"componentType":5126,
		"count":2166,
		"min":[-2.556660565965011e-29,
		-1.0,
		-2.2412391022811823e-28],
		"max":[2.2415092139558826e-28,
		1.0,
		1.833527196032939e-28]
	},
	{
		"bufferView":11,
		"byteOffset":24,
		"type":"VEC2",
		"componentType":5126,
		"count":2166,
		"min":[0.0,
		0.0],
		"max":[1.0,
		0.44503337144851687]
	},
	{
		"bufferView":12,
		"byteOffset":0,
		"type":"SCALAR",
		"componentType":5123,
		"count":16884,
		"min":[0],
		"max":[6645]
	},
	{
		"bufferView":13,
		"byteOffset":0,
		"type":"VEC3",
		"componentType":5126,
		"count":6646,
		"min":[8.49609375,
		-8.845202538075234e-14,
		251.0685272216797],
		"max":[722.265625,
		-1.040471449605541e-15,
		467.9435119628906]
	},
	{
		"bufferView":13,
		"byteOffset":12,
		"type":"VEC3",
		"componentType":5126,
		"count":6646,
		"min":[-1.2335811972941287e-16,
		-1.0,
		0.0],
		"max":[1.2423924575279415e-16,
		1.0,
		0.0]
	},
	{
		"bufferView":13,
		"byteOffset":24,
		"type":"VEC2",
		"componentType":5126,
		"count":6646,
		"min":[0.0,
		0.0],
		"max":[1.0,
		1.0]
	},
	{
		"bufferView":14,
		"byteOffset":0,
		"type":"SCALAR",
		"componentType":5123,
		"count":8418,
		"min":[0],
		"max":[2813]
	},
	{
		"bufferView":15,
		"byteOffset":0,
		"type":"VEC3",
		"componentType":5126,
		"count":2814,
		"min":[8.49609375,
		-6.47612375551629e-30,
		-177.734375],
		"max":[722.265625,
		8.386701931760882e-30,
		19.140625]
	},
	{
		"bufferView":15,
		"byteOffset":12,
		"type":"VEC3",
		"componentType":5126,
		"count":2814,
		"min":[-8.002614956750607e-28,
		-1.0,
		-8.328214117596171e-28],
		"max":[1.3975491382146533e-27,
		1.0,
		8.615223901628535e-28]
	},
	{
		"bufferView":15,
		"byteOffset":24,
		"type":"VEC2",
		"componentType":5126,
		"count":2814,
		"min":[0.0,
		0.0],
		"max":[1.0,
		0.27582430839538576]
	},
	{
		"bufferView":16,
		"byteOffset":0,
		"type":"SCALAR",
		"componentType":5123,
		"count":8418,
		"min":[0],
		"max":[2813]
	},
	{
		"bufferView":17,
		"byteOffset":0,
		"type":"VEC3",
		"componentType":5126,
		"count":2814,
		"min":[8.49609375,
		-6.1761714514237457e-30,
		-157.734375],
		"max":[722.265625,
		8.686654235853426e-30,
		39.140625]
	},
	{
		"bufferView":17,
		"byteOffset":12,
		"type":"VEC3",
		"componentType":5126,
		"count":2814,
		"min":[-1.3975338270715955e-27,
		-1.0,
		-8.615223901628535e-28],
		"max":[8.002614956750607e-28,
		1.0,
		8.328215080561144e-28]
	},
	{
		"bufferView":17,
		"byteOffset":24,
		"type":"VEC2",
		"componentType":5126,
		"count":2814,
		"min":[0.0,
		0.0],
		"max":[1.0,
		0.27582430839538576]
	}],
	"bufferViews":[{
		"buffer":0,
		"byteOffset":0,
		"byteLength":27072,
		"target":34963
	},
	{
		"buffer":0,
		"byteOffset":27072,
		"byteLength":167936,
		"target":34962,
		"byteStride":32
	},
	{
		"buffer":1,
		"byteOffset":0,
		"byteLength":13488,
		"target":34963
	},
	{
		"buffer":1,
		"byteOffset":13488,
		"byteLength":72192,
		"target":34962,
		"byteStride":32
	},
	{
		"buffer":2,
		"byteOffset":0,
		"byteLength":13488,
		"target":34963
	},
	{
		"buffer":2,
		"byteOffset":13488,
		"byteLength":72192,
		"target":34962,
		"byteStride":32
	},
	{
		"buffer":3,
		"byteOffset":0,
		"byteLength":25992,
		"target":34963
	},
	{
		"buffer":3,
		"byteOffset":25992,
		"byteLength":160384,
		"target":34962,
		"byteStride":32
	},
	{
		"buffer":4,
		"byteOffset":0,
		"byteLength":12960,
		"target":34963
	},
	{
		"buffer":4,
		"byteOffset":12960,
		"byteLength":69312,
		"target":34962,
		"byteStride":32
	},
	{
		"buffer":5,
		"byteOffset":0,
		"byteLength":12960,
		"target":34963
	},
	{
		"buffer":5,
		"byteOffset":12960,
		"byteLength":69312,
		"target":34962,
		"byteStride":32
	},
	{
		"buffer":6,
		"byteOffset":0,
		"byteLength":33768,
		"target":34963
	},
	{
		"buffer":6,
		"byteOffset":33768,
		"byteLength":212672,
		"target":34962,
		"byteStride":32
	},
	{
		"buffer":7,
		"byteOffset":0,
		"byteLength":16836,
		"target":34963
	},
	{
		"buffer":7,
		"byteOffset":16836,
		"byteLength":90048,
		"target":34962,
		"byteStride":32
	},
	{
		"buffer":8,
		"byteOffset":0,
		"byteLength":16836,
		"target":34963
	},
	{
		"buffer":8,
		"byteOffset":16836,
		"byteLength":90048,
		"target":34962,
		"byteStride":32
	}],
	"buffers":[{
		"uri":"data:application/octet-stream;base64,",
		"byteLength":195008
	},
	{
		"uri":"data:application/octet-stream;base64,",
		"byteLength":85680
	},
	{
		"uri":"data:application/octet-stream;base64,",
		"byteLength":85680
	},
	{
		"uri":"data:application/octet-stream;base64,",
		"byteLength":186376
	},
	{
		"uri":"data:application/octet-stream;base64,",
		"byteLength":82272
	},
	{
		"uri":"data:application/octet-stream;base64,",
		"byteLength":82272
	},
	{
		"uri":"data:application/octet-stream;base64,",
		"byteLength":246440
	},
	{
		"uri":"data:application/octet-stream;base64,",
		"byteLength":106884
	},
	{
		"uri":"data:application/octet-stream;base64,",
		"byteLength":106884
	}],
	"materials":[{
		"pbrMetallicRoughness":{
			"baseColorFactor":[0.89,
			0.30259999999999989,
			0.8018899999999999,
			1.0],
			"metallicFactor":0.0,
			"roughnessFactor":0.5
		},
		"emissiveFactor":[0.0,
		0.0,
		0.0],
		"alphaMode":"OPAQUE",
		"doubleSided":false,
		"name":"Mat.2"
	},
	{
		"pbrMetallicRoughness":{
			"baseColorFactor":[0.8,
			0.3280000000000001,
			0.3280000000000001,
			1.0],
			"metallicFactor":0.0,
			"roughnessFactor":0.5
		},
		"emissiveFactor":[0.0,
		0.0,
		0.0],
		"alphaMode":"OPAQUE",
		"doubleSided":false,
		"name":"Mat.1"
	},
	{
		"pbrMetallicRoughness":{
			"baseColorFactor":[0.8,
			0.03200000000000003,
			0.03200000000000003,
			1.0],
			"metallicFactor":0.0,
			"roughnessFactor":0.5
		},
		"emissiveFactor":[0.0,
		0.0,
		0.0],
		"alphaMode":"OPAQUE",
		"doubleSided":false,
		"name":"Mat"
	}]
}