{
	"asset":{
		"version":"2.0",
		"generator":"Created using the official Cinema 4D glTF Exporter 1.000x287587"
	},
	"scenes":[{
		"nodes":[0,
		2,
		3,
		4,
		7]
	}],
	"nodes":[{
		"name":"Camera Morph Setup",
		"children":[1]
	},
	{
		"name":"Morph Camera",
		"translation":[478.0578308105469,
		1905.123779296875,
		-33.28300094604492],
		"rotation":[-0.6214060187339783,
		-0.03101830556988716,
		-0.024632951244711877,
		0.7824868559837341],
		"scale":[1.0,
		1.0,
		1.0],
		"camera":0
	},
	{
		"name":"Camera cam",
		"translation":[514.1649169921875,
		2059.018310546875,
		-72.82969665527344],
		"rotation":[-0.6214060187339783,
		-0.03101830556988716,
		-0.024632951244711877,
		0.7824868559837341],
		"scale":[1.0,
		1.0,
		1.0],
		"camera":1
	},
	{
		"name":"Low cam",
		"translation":[228.05728149414063,
		839.5789794921875,
		240.53297424316407],
		"rotation":[-0.6214060187339783,
		-0.03101830556988716,
		-0.024632951244711877,
		0.7824868559837341],
		"scale":[1.0,
		1.0,
		1.0],
		"camera":2
	},
	{
		"name":"Extrude.1",
		"translation":[0.0,
		326.5850524902344,
		0.0],
		"rotation":[0.0,
		0.0,
		0.0,
		-1.0],
		"scale":[1.0,
		1.0,
		1.0],
		"mesh":0,
		"children":[5,
		6]
	},
	{
		"name":"Cap 1",
		"translation":[0.0,
		0.0,
		224.09197998046876],
		"rotation":[0.0,
		0.0,
		0.0,
		-1.0],
		"scale":[1.0,
		1.0,
		1.0],
		"mesh":1
	},
	{
		"name":"Cap 2",
		"translation":[0.0,
		0.0,
		224.09197998046876],
		"rotation":[0.0,
		0.0,
		0.0,
		-1.0],
		"scale":[1.0,
		1.0,
		1.0],
		"mesh":2
	},
	{
		"name":"Extrude",
		"translation":[0.0,
		314.8393249511719,
		-326.84954833984377],
		"rotation":[0.0,
		0.0,
		0.0,
		-1.0],
		"scale":[1.0,
		1.0,
		1.0],
		"mesh":3,
		"children":[8,
		10]
	},
	{
		"name":"Rounding",
		"mesh":4,
		"children":[9]
	},
	{
		"name":"Cap 1",
		"mesh":5
	},
	{
		"name":"Cap 2",
		"mesh":6
	}],
	"meshes":[{
		"primitives":[{
			"attributes":{
				"POSITION":1,
				"NORMAL":2,
				"TEXCOORD_0":3
			},
			"indices":0,
			"material":0
		}]
	},
	{
		"primitives":[{
			"attributes":{
				"POSITION":5,
				"NORMAL":6,
				"TEXCOORD_0":7
			},
			"indices":4,
			"material":0
		}]
	},
	{
		"primitives":[{
			"attributes":{
				"POSITION":9,
				"NORMAL":10,
				"TEXCOORD_0":11
			},
			"indices":8,
			"material":0
		}]
	},
	{
		"primitives":[{
			"attributes":{
				"POSITION":13,
				"NORMAL":14,
				"TEXCOORD_0":15
			},
			"indices":12,
			"material":1
		}]
	},
	{
		"primitives":[{
			"attributes":{
				"POSITION":17,
				"NORMAL":18,
				"TEXCOORD_0":19
			},
			"indices":16,
			"material":1
		}]
	},
	{
		"primitives":[{
			"attributes":{
				"POSITION":21,
				"NORMAL":22,
				"TEXCOORD_0":23
			},
			"indices":20,
			"material":1
		}]
	},
	{
		"primitives":[{
			"attributes":{
				"POSITION":25,
				"NORMAL":26,
				"TEXCOORD_0":27
			},
			"indices":24,
			"material":1
		}]
	}],
	"cameras":[{
		"type":"perspective",
		"perspective":{
			"znear":0.009999999776482582,
			"zfar":10000000000.0,
			"aspectRatio":1.7777777910232545,
			"yfov":0.5483348965644836
		}
	},
	{
		"type":"perspective",
		"perspective":{
			"znear":0.009999999776482582,
			"zfar":10000000000.0,
			"aspectRatio":1.7777777910232545,
			"yfov":0.5483348965644836
		}
	},
	{
		"type":"perspective",
		"perspective":{
			"znear":0.009999999776482582,
			"zfar":10000000000.0,
			"aspectRatio":1.7777777910232545,
			"yfov":0.5483348965644836
		}
	}],
	"accessors":[{
		"bufferView":0,
		"byteOffset":0,
		"type":"SCALAR",
		"componentType":5123,
		"count":10776,
		"min":[0],
		"max":[4192]
	},
	{
		"bufferView":1,
		"byteOffset":0,
		"type":"VEC3",
		"componentType":5126,
		"count":4193,
		"min":[8.49609375,
		0.0,
		26.357601165771486],
		"max":[475.0,
		0.0,
		243.23260498046876]
	},
	{
		"bufferView":1,
		"byteOffset":12,
		"type":"VEC3",
		"componentType":5126,
		"count":4193,
		"min":[0.0,
		-1.0,
		0.0],
		"max":[0.0,
		1.0,
		0.0]
	},
	{
		"bufferView":1,
		"byteOffset":24,
		"type":"VEC2",
		"componentType":5126,
		"count":4193,
		"min":[0.0,
		0.0],
		"max":[1.0,
		1.0]
	},
	{
		"bufferView":2,
		"byteOffset":0,
		"type":"SCALAR",
		"componentType":5123,
		"count":5376,
		"min":[0],
		"max":[1795]
	},
	{
		"bufferView":3,
		"byteOffset":0,
		"type":"VEC3",
		"componentType":5126,
		"count":1796,
		"min":[8.49609375,
		0.0,
		-177.734375],
		"max":[475.0,
		0.0,
		19.140625]
	},
	{
		"bufferView":3,
		"byteOffset":12,
		"type":"VEC3",
		"componentType":5126,
		"count":1796,
		"min":[0.0,
		1.0,
		0.0],
		"max":[0.0,
		1.0,
		0.0]
	},
	{
		"bufferView":3,
		"byteOffset":24,
		"type":"VEC2",
		"componentType":5126,
		"count":1796,
		"min":[0.0,
		0.0],
		"max":[1.0,
		0.42202216386795046]
	},
	{
		"bufferView":4,
		"byteOffset":0,
		"type":"SCALAR",
		"componentType":5123,
		"count":5376,
		"min":[0],
		"max":[1795]
	},
	{
		"bufferView":5,
		"byteOffset":0,
		"type":"VEC3",
		"componentType":5126,
		"count":1796,
		"min":[8.49609375,
		0.0,
		-197.734375],
		"max":[475.0,
		0.0,
		-0.859375]
	},
	{
		"bufferView":5,
		"byteOffset":12,
		"type":"VEC3",
		"componentType":5126,
		"count":1796,
		"min":[0.0,
		1.0,
		0.0],
		"max":[0.0,
		1.0,
		0.0]
	},
	{
		"bufferView":5,
		"byteOffset":24,
		"type":"VEC2",
		"componentType":5126,
		"count":1796,
		"min":[0.0,
		0.0],
		"max":[1.0,
		0.42202216386795046]
	},
	{
		"bufferView":6,
		"byteOffset":0,
		"type":"SCALAR",
		"componentType":5123,
		"count":42348,
		"min":[0],
		"max":[17346]
	},
	{
		"bufferView":7,
		"byteOffset":0,
		"type":"VEC3",
		"componentType":5126,
		"count":17347,
		"min":[-16.190420150756837,
		0.0,
		-215.70916748046876],
		"max":[1189.265869140625,
		0.0,
		349.09375]
	},
	{
		"bufferView":7,
		"byteOffset":12,
		"type":"VEC3",
		"componentType":5126,
		"count":17347,
		"min":[0.0,
		-1.0,
		0.0],
		"max":[0.0,
		1.0,
		0.0]
	},
	{
		"bufferView":7,
		"byteOffset":24,
		"type":"VEC2",
		"componentType":5126,
		"count":17347,
		"min":[0.0,
		0.0],
		"max":[1.0,
		1.0]
	},
	{
		"bufferView":8,
		"byteOffset":0,
		"type":"SCALAR",
		"componentType":5123,
		"count":42348,
		"min":[0],
		"max":[20824]
	},
	{
		"bufferView":9,
		"byteOffset":0,
		"type":"VEC3",
		"componentType":5126,
		"count":20825,
		"min":[-16.190420150756837,
		0.0,
		-195.70916748046876],
		"max":[1189.265869140625,
		3.0,
		349.09375]
	},
	{
		"bufferView":9,
		"byteOffset":12,
		"type":"VEC3",
		"componentType":5126,
		"count":20825,
		"min":[-0.7568678855895996,
		-0.8687613010406494,
		-0.8659241199493408],
		"max":[0.7675665020942688,
		0.8635497689247131,
		0.8633543848991394]
	},
	{
		"bufferView":9,
		"byteOffset":24,
		"type":"VEC2",
		"componentType":5126,
		"count":20825,
		"min":[0.0,
		0.0],
		"max":[1.0,
		1.0]
	},
	{
		"bufferView":10,
		"byteOffset":0,
		"type":"SCALAR",
		"componentType":5123,
		"count":21114,
		"min":[0],
		"max":[7057]
	},
	{
		"bufferView":11,
		"byteOffset":0,
		"type":"VEC3",
		"componentType":5126,
		"count":7058,
		"min":[-13.0859375,
		3.0,
		-192.67578125],
		"max":[1186.1328125,
		3.0,
		346.09375]
	},
	{
		"bufferView":11,
		"byteOffset":12,
		"type":"VEC3",
		"componentType":5126,
		"count":7058,
		"min":[0.0,
		-1.0,
		0.0],
		"max":[0.0,
		1.0,
		0.0]
	},
	{
		"bufferView":11,
		"byteOffset":24,
		"type":"VEC2",
		"componentType":5126,
		"count":7058,
		"min":[0.0,
		0.0],
		"max":[1.0,
		0.44926708936691286]
	},
	{
		"bufferView":12,
		"byteOffset":0,
		"type":"SCALAR",
		"componentType":5123,
		"count":21114,
		"min":[0],
		"max":[7057]
	},
	{
		"bufferView":13,
		"byteOffset":0,
		"type":"VEC3",
		"componentType":5126,
		"count":7058,
		"min":[-16.190420150756837,
		0.0,
		-215.70916748046876],
		"max":[1189.265869140625,
		0.0,
		329.09375]
	},
	{
		"bufferView":13,
		"byteOffset":12,
		"type":"VEC3",
		"componentType":5126,
		"count":7058,
		"min":[0.0,
		-1.0,
		0.0],
		"max":[0.0,
		1.0,
		0.0]
	},
	{
		"bufferView":13,
		"byteOffset":24,
		"type":"VEC2",
		"componentType":5126,
		"count":7058,
		"min":[0.0,
		0.0],
		"max":[1.0,
		0.4519474506378174]
	}],
	"bufferViews":[{
		"buffer":0,
		"byteOffset":0,
		"byteLength":21552,
		"target":34963
	},
	{
		"buffer":0,
		"byteOffset":21552,
		"byteLength":134176,
		"target":34962,
		"byteStride":32
	},
	{
		"buffer":1,
		"byteOffset":0,
		"byteLength":10752,
		"target":34963
	},
	{
		"buffer":1,
		"byteOffset":10752,
		"byteLength":57472,
		"target":34962,
		"byteStride":32
	},
	{
		"buffer":2,
		"byteOffset":0,
		"byteLength":10752,
		"target":34963
	},
	{
		"buffer":2,
		"byteOffset":10752,
		"byteLength":57472,
		"target":34962,
		"byteStride":32
	},
	{
		"buffer":3,
		"byteOffset":0,
		"byteLength":84696,
		"target":34963
	},
	{
		"buffer":3,
		"byteOffset":84696,
		"byteLength":555104,
		"target":34962,
		"byteStride":32
	},
	{
		"buffer":4,
		"byteOffset":0,
		"byteLength":84696,
		"target":34963
	},
	{
		"buffer":4,
		"byteOffset":84696,
		"byteLength":666400,
		"target":34962,
		"byteStride":32
	},
	{
		"buffer":5,
		"byteOffset":0,
		"byteLength":42228,
		"target":34963
	},
	{
		"buffer":5,
		"byteOffset":42228,
		"byteLength":225856,
		"target":34962,
		"byteStride":32
	},
	{
		"buffer":6,
		"byteOffset":0,
		"byteLength":42228,
		"target":34963
	},
	{
		"buffer":6,
		"byteOffset":42228,
		"byteLength":225856,
		"target":34962,
		"byteStride":32
	}],
	"buffers":[{
		"uri":"data:application/octet-stream;base64,",
		"byteLength":155728
	},
	{
		"uri":"data:application/octet-stream;base64,",
		"byteLength":68224
	},
	{
		"uri":"data:application/octet-stream;base64,",
		"byteLength":68224
	},
	{
		"uri":"data:application/octet-stream;base64,",
		"byteLength":639800
	},
	{
		"uri":"data:application/octet-stream;base64,",
		"byteLength":751096
	},
	{
		"uri":"data:application/octet-stream;base64,",
		"byteLength":268084
	},
	{
		"uri":"data:application/octet-stream;base64,",
		"byteLength":268084
	}],
	"materials":[{
		"pbrMetallicRoughness":{
			"baseColorFactor":[0.7115509018262418,
			0.9920090418781726,
			0.7115509018262418,
			1.0],
			"metallicFactor":0.0,
			"roughnessFactor":0.5
		},
		"emissiveFactor":[0.0,
		0.0,
		0.0],
		"alphaMode":"OPAQUE",
		"doubleSided":false,
		"name":"Mat.1"
	},
	{
		"pbrMetallicRoughness":{
			"baseColorFactor":[1.0,
			0.2329383316995648,
			0.02222795050761428,
			1.0],
			"metallicFactor":0.0,
			"roughnessFactor":0.5
		},
		"emissiveFactor":[0.0,
		0.0,
		0.0],
		"alphaMode":"OPAQUE",
		"doubleSided":false,
		"name":"Mat"
	}]
}