{"accessors" : [{"bufferView" : 0, "byteOffset" : 0, "componentType" : 5123, "count" : 10776, "type" : "SCALAR", "max" : [3591], "min" : [0]}, {"bufferView" : 1, "byteOffset" : 0, "componentType" : 5126, "count" : 3592, "type" : "VEC3", "max" : [4.75, -0.263599991798401, 3.2658998966217], "min" : [0.0850000008940697, -2.43230009078979, 3.2658998966217]}, {"bufferView" : 1, "byteOffset" : 12, "componentType" : 5126, "count" : 3592, "type" : "VEC4", "max" : [0.699999988079071, 0.699999988079071, 0.699999988079071, 1], "min" : [0.699999988079071, 0.699999988079071, 0.699999988079071, 1]}, {"bufferView" : 0, "byteOffset" : 21552, "componentType" : 5123, "count" : 7218, "type" : "SCALAR", "max" : [1795], "min" : [0]}, {"bufferView" : 2, "byteOffset" : 0, "componentType" : 5126, "count" : 1796, "type" : "VEC3", "max" : [4.75, -0.463600009679794, 3.2658998966217], "min" : [0.0850000008940697, -2.43230009078979, 3.2658998966217]}, {"bufferView" : 2, "byteOffset" : 12, "componentType" : 5126, "count" : 1796, "type" : "VEC4", "max" : [0.699999988079071, 0.699999988079071, 0.699999988079071, 1], "min" : [0.699999988079071, 0.699999988079071, 0.699999988079071, 1]}, {"bufferView" : 0, "byteOffset" : 35988, "componentType" : 5123, "count" : 7218, "type" : "SCALAR", "max" : [1795], "min" : [0]}, {"bufferView" : 3, "byteOffset" : 0, "componentType" : 5126, "count" : 1796, "type" : "VEC3", "max" : [4.75, -0.263599991798401, 3.2658998966217], "min" : [0.0850000008940697, -2.23230004310608, 3.2658998966217]}, {"bufferView" : 3, "byteOffset" : 12, "componentType" : 5126, "count" : 1796, "type" : "VEC4", "max" : [0.699999988079071, 0.699999988079071, 0.699999988079071, 1], "min" : [0.699999988079071, 0.699999988079071, 0.699999988079071, 1]}, {"bufferView" : 0, "byteOffset" : 50424, "componentType" : 5123, "count" : 42348, "type" : "SCALAR", "max" : [14087], "min" : [0]}, {"bufferView" : 4, "byteOffset" : 0, "componentType" : 5126, "count" : 14088, "type" : "VEC3", "max" : [11.8927001953125, 5.42560005187988, 3.14840006828308], "min" : [-0.161899998784065, -0.222399994730949, 3.14840006828308]}, {"bufferView" : 4, "byteOffset" : 12, "componentType" : 5126, "count" : 14088, "type" : "VEC4", "max" : [0.699999988079071, 0.699999988079071, 0.699999988079071, 1], "min" : [0.699999988079071, 0.699999988079071, 0.699999988079071, 1]}, {"bufferView" : 0, "byteOffset" : 135120, "componentType" : 5123, "count" : 42348, "type" : "SCALAR", "max" : [14101], "min" : [0]}, {"bufferView" : 5, "byteOffset" : 0, "componentType" : 5126, "count" : 14102, "type" : "VEC3", "max" : [11.8927001953125, 5.22559976577759, 3.17840003967285], "min" : [-0.161899998784065, -0.222399994730949, 3.14840006828308]}, {"bufferView" : 5, "byteOffset" : 12, "componentType" : 5126, "count" : 14102, "type" : "VEC4", "max" : [0.699999988079071, 0.699999988079071, 0.699999988079071, 1], "min" : [0.699999988079071, 0.699999988079071, 0.699999988079071, 1]}, {"bufferView" : 0, "byteOffset" : 219816, "componentType" : 5123, "count" : 28392, "type" : "SCALAR", "max" : [7057], "min" : [0]}, {"bufferView" : 6, "byteOffset" : 0, "componentType" : 5126, "count" : 7058, "type" : "VEC3", "max" : [11.8613004684448, 5.19530010223389, 3.17840003967285], "min" : [-0.130899995565414, -0.192399993538857, 3.17840003967285]}, {"bufferView" : 6, "byteOffset" : 12, "componentType" : 5126, "count" : 7058, "type" : "VEC4", "max" : [0.699999988079071, 0.699999988079071, 0.699999988079071, 1], "min" : [0.699999988079071, 0.699999988079071, 0.699999988079071, 1]}, {"bufferView" : 0, "byteOffset" : 276600, "componentType" : 5123, "count" : 28392, "type" : "SCALAR", "max" : [7043], "min" : [0]}, {"bufferView" : 7, "byteOffset" : 0, "componentType" : 5126, "count" : 7044, "type" : "VEC3", "max" : [11.8927001953125, 5.42560005187988, 3.14840006828308], "min" : [-0.161899998784065, -0.0223999992012978, 3.14840006828308]}, {"bufferView" : 7, "byteOffset" : 12, "componentType" : 5126, "count" : 7044, "type" : "VEC4", "max" : [0.699999988079071, 0.699999988079071, 0.699999988079071, 1], "min" : [0.699999988079071, 0.699999988079071, 0.699999988079071, 1]}], "asset" : {"generator" : "Aspose.3D 20.2.1", "version" : "2.0"}, "buffers" : [{"uri" : "buffer.bin", "byteLength" : 1718744}], "bufferViews" : [{"buffer" : 0, "byteOffset" : 0, "byteLength" : 333384, "target" : 34963}, {"buffer" : 0, "byteOffset" : 333388, "byteLength" : 100576, "byteStride" : 28, "target" : 34962}, {"buffer" : 0, "byteOffset" : 433968, "byteLength" : 50288, "byteStride" : 28, "target" : 34962}, {"buffer" : 0, "byteOffset" : 484260, "byteLength" : 50288, "byteStride" : 28, "target" : 34962}, {"buffer" : 0, "byteOffset" : 534552, "byteLength" : 394464, "byteStride" : 28, "target" : 34962}, {"buffer" : 0, "byteOffset" : 929020, "byteLength" : 394856, "byteStride" : 28, "target" : 34962}, {"buffer" : 0, "byteOffset" : 1323880, "byteLength" : 197624, "byteStride" : 28, "target" : 34962}, {"buffer" : 0, "byteOffset" : 1521508, "byteLength" : 197232, "byteStride" : 28, "target" : 34962}], "materials" : [{"pbrMetallicRoughness" : {"baseColorFactor" : [0.899999976158142, 0.899999976158142, 0.899999976158142, 1], "metallicFactor" : 0, "roughnessFactor" : 0}, "emissiveFactor" : [0, 0, 0], "alphaMode" : "OPAQUE", "doubleSided" : false}, {"pbrMetallicRoughness" : {"baseColorFactor" : [0.899999976158142, 0.899999976158142, 0.899999976158142, 1], "metallicFactor" : 0, "roughnessFactor" : 0}, "emissiveFactor" : [0, 0, 0], "alphaMode" : "OPAQUE", "doubleSided" : false}, {"pbrMetallicRoughness" : {"baseColorFactor" : [0.899999976158142, 0.899999976158142, 0.899999976158142, 1], "metallicFactor" : 0, "roughnessFactor" : 0}, "emissiveFactor" : [0, 0, 0], "alphaMode" : "OPAQUE", "doubleSided" : false}, {"pbrMetallicRoughness" : {"baseColorFactor" : [0.899999976158142, 0.899999976158142, 0.899999976158142, 1], "metallicFactor" : 0, "roughnessFactor" : 0}, "emissiveFactor" : [0, 0, 0], "alphaMode" : "OPAQUE", "doubleSided" : false}, {"pbrMetallicRoughness" : {"baseColorFactor" : [0.899999976158142, 0.899999976158142, 0.899999976158142, 1], "metallicFactor" : 0, "roughnessFactor" : 0}, "emissiveFactor" : [0, 0, 0], "alphaMode" : "OPAQUE", "doubleSided" : false}, {"pbrMetallicRoughness" : {"baseColorFactor" : [0.899999976158142, 0.899999976158142, 0.899999976158142, 1], "metallicFactor" : 0, "roughnessFactor" : 0}, "emissiveFactor" : [0, 0, 0], "alphaMode" : "OPAQUE", "doubleSided" : false}, {"pbrMetallicRoughness" : {"baseColorFactor" : [0.899999976158142, 0.899999976158142, 0.899999976158142, 1], "metallicFactor" : 0, "roughnessFactor" : 0}, "emissiveFactor" : [0, 0, 0], "alphaMode" : "OPAQUE", "doubleSided" : false}], "meshes" : [{"primitives" : [{"attributes" : {"POSITION" : 1, "COLOR" : 2}, "indices" : 0, "material" : 0, "mode" : 4}]}, {"primitives" : [{"attributes" : {"POSITION" : 4, "COLOR" : 5}, "indices" : 3, "material" : 1, "mode" : 4}]}, {"primitives" : [{"attributes" : {"POSITION" : 7, "COLOR" : 8}, "indices" : 6, "material" : 2, "mode" : 4}]}, {"primitives" : [{"attributes" : {"POSITION" : 10, "COLOR" : 11}, "indices" : 9, "material" : 3, "mode" : 4}]}, {"primitives" : [{"attributes" : {"POSITION" : 13, "COLOR" : 14}, "indices" : 12, "material" : 4, "mode" : 4}]}, {"primitives" : [{"attributes" : {"POSITION" : 16, "COLOR" : 17}, "indices" : 15, "material" : 5, "mode" : 4}]}, {"primitives" : [{"attributes" : {"POSITION" : 19, "COLOR" : 20}, "indices" : 18, "material" : 6, "mode" : 4}]}], "nodes" : [{"mesh" : 0, "name" : "EXTRUDE_1"}, {"mesh" : 1, "name" : "CAP_1"}, {"mesh" : 2, "name" : "CAP_2"}, {"mesh" : 3, "name" : "EXTRUDE"}, {"mesh" : 4, "name" : "ROUNDING"}, {"mesh" : 5, "name" : "CAP_1_1"}, {"mesh" : 6, "name" : "CAP_2_1"}], "scene" : 0, "scenes" : [{"nodes" : [0, 1, 2, 3, 4, 5, 6]}]}