{"accessors" : [{"bufferView" : 0, "byteOffset" : 0, "componentType" : 5123, "count" : 10776, "type" : "SCALAR", "max" : [3591], "min" : [0]}, {"bufferView" : 1, "byteOffset" : 0, "componentType" : 5126, "count" : 3592, "type" : "VEC3", "max" : [4.75, -0.263599991798401, 0], "min" : [0.0850000008940697, -2.43230009078979, 0]}, {"bufferView" : 1, "byteOffset" : 12, "componentType" : 5126, "count" : 3592, "type" : "VEC4", "max" : [0.699999988079071, 0.699999988079071, 0.699999988079071, 1], "min" : [0.699999988079071, 0.699999988079071, 0.699999988079071, 1]}, {"bufferView" : 0, "byteOffset" : 21552, "componentType" : 5123, "count" : 7218, "type" : "SCALAR", "max" : [1795], "min" : [0]}, {"bufferView" : 2, "byteOffset" : 0, "componentType" : 5126, "count" : 1796, "type" : "VEC3", "max" : [4.75, -0.463600009679794, 0], "min" : [0.0850000008940697, -2.43230009078979, 0]}, {"bufferView" : 2, "byteOffset" : 12, "componentType" : 5126, "count" : 1796, "type" : "VEC4", "max" : [0.699999988079071, 0.699999988079071, 0.699999988079071, 1], "min" : [0.699999988079071, 0.699999988079071, 0.699999988079071, 1]}, {"bufferView" : 0, "byteOffset" : 35988, "componentType" : 5123, "count" : 7218, "type" : "SCALAR", "max" : [1795], "min" : [0]}, {"bufferView" : 3, "byteOffset" : 0, "componentType" : 5126, "count" : 1796, "type" : "VEC3", "max" : [4.75, -0.263599991798401, 0], "min" : [0.0850000008940697, -2.23230004310608, 0]}, {"bufferView" : 3, "byteOffset" : 12, "componentType" : 5126, "count" : 1796, "type" : "VEC4", "max" : [0.699999988079071, 0.699999988079071, 0.699999988079071, 1], "min" : [0.699999988079071, 0.699999988079071, 0.699999988079071, 1]}, {"bufferView" : 0, "byteOffset" : 50424, "componentType" : 5123, "count" : 42348, "type" : "SCALAR", "max" : [14085], "min" : [0]}, {"bufferView" : 4, "byteOffset" : 0, "componentType" : 5126, "count" : 14086, "type" : "VEC3", "max" : [11.8927001953125, 0.200000002980232, 5.10550022125244], "min" : [-0.161899998784065, 0, -0.342500001192093]}, {"bufferView" : 4, "byteOffset" : 12, "componentType" : 5126, "count" : 14086, "type" : "VEC4", "max" : [0.699999988079071, 0.699999988079071, 0.699999988079071, 1], "min" : [0.699999988079071, 0.699999988079071, 0.699999988079071, 1]}, {"bufferView" : 0, "byteOffset" : 135120, "componentType" : 5123, "count" : 42348, "type" : "SCALAR", "max" : [14100], "min" : [0]}, {"bufferView" : 5, "byteOffset" : 0, "componentType" : 5126, "count" : 14101, "type" : "VEC3", "max" : [11.8927001953125, 0, 5.10550022125244], "min" : [-0.161899998784065, -0.0299999993294477, -0.342500001192093]}, {"bufferView" : 5, "byteOffset" : 12, "componentType" : 5126, "count" : 14101, "type" : "VEC4", "max" : [0.699999988079071, 0.699999988079071, 0.699999988079071, 1], "min" : [0.699999988079071, 0.699999988079071, 0.699999988079071, 1]}, {"bufferView" : 0, "byteOffset" : 219816, "componentType" : 5123, "count" : 28392, "type" : "SCALAR", "max" : [7057], "min" : [0]}, {"bufferView" : 6, "byteOffset" : 0, "componentType" : 5126, "count" : 7058, "type" : "VEC3", "max" : [11.8613004684448, -0.0299999993294477, 5.07520008087158], "min" : [-0.130899995565414, -0.0299999993294477, -0.3125]}, {"bufferView" : 6, "byteOffset" : 12, "componentType" : 5126, "count" : 7058, "type" : "VEC4", "max" : [0.699999988079071, 0.699999988079071, 0.699999988079071, 1], "min" : [0.699999988079071, 0.699999988079071, 0.699999988079071, 1]}, {"bufferView" : 0, "byteOffset" : 276600, "componentType" : 5123, "count" : 28386, "type" : "SCALAR", "max" : [7042], "min" : [0]}, {"bufferView" : 7, "byteOffset" : 0, "componentType" : 5126, "count" : 7043, "type" : "VEC3", "max" : [11.8927001953125, 0.200000002980232, 5.10550022125244], "min" : [-0.161899998784065, 0.200000002980232, -0.342500001192093]}, {"bufferView" : 7, "byteOffset" : 12, "componentType" : 5126, "count" : 7043, "type" : "VEC4", "max" : [0.699999988079071, 0.699999988079071, 0.699999988079071, 1], "min" : [0.699999988079071, 0.699999988079071, 0.699999988079071, 1]}], "asset" : {"generator" : "Aspose.3D 20.2.1", "version" : "2.0"}, "buffers" : [{"uri" : "buffer.bin", "byteLength" : 1718620}], "bufferViews" : [{"buffer" : 0, "byteOffset" : 0, "byteLength" : 333372, "target" : 34963}, {"buffer" : 0, "byteOffset" : 333376, "byteLength" : 100576, "byteStride" : 28, "target" : 34962}, {"buffer" : 0, "byteOffset" : 433956, "byteLength" : 50288, "byteStride" : 28, "target" : 34962}, {"buffer" : 0, "byteOffset" : 484248, "byteLength" : 50288, "byteStride" : 28, "target" : 34962}, {"buffer" : 0, "byteOffset" : 534540, "byteLength" : 394408, "byteStride" : 28, "target" : 34962}, {"buffer" : 0, "byteOffset" : 928952, "byteLength" : 394828, "byteStride" : 28, "target" : 34962}, {"buffer" : 0, "byteOffset" : 1323784, "byteLength" : 197624, "byteStride" : 28, "target" : 34962}, {"buffer" : 0, "byteOffset" : 1521412, "byteLength" : 197204, "byteStride" : 28, "target" : 34962}], "materials" : [{"pbrMetallicRoughness" : {"baseColorFactor" : [0.899999976158142, 0.899999976158142, 0.899999976158142, 1], "metallicFactor" : 0, "roughnessFactor" : 0}, "emissiveFactor" : [0, 0, 0], "alphaMode" : "OPAQUE", "doubleSided" : false}, {"pbrMetallicRoughness" : {"baseColorFactor" : [0.899999976158142, 0.899999976158142, 0.899999976158142, 1], "metallicFactor" : 0, "roughnessFactor" : 0}, "emissiveFactor" : [0, 0, 0], "alphaMode" : "OPAQUE", "doubleSided" : false}, {"pbrMetallicRoughness" : {"baseColorFactor" : [0.899999976158142, 0.899999976158142, 0.899999976158142, 1], "metallicFactor" : 0, "roughnessFactor" : 0}, "emissiveFactor" : [0, 0, 0], "alphaMode" : "OPAQUE", "doubleSided" : false}, {"pbrMetallicRoughness" : {"baseColorFactor" : [0.899999976158142, 0.899999976158142, 0.899999976158142, 1], "metallicFactor" : 0, "roughnessFactor" : 0}, "emissiveFactor" : [0, 0, 0], "alphaMode" : "OPAQUE", "doubleSided" : false}, {"pbrMetallicRoughness" : {"baseColorFactor" : [0.899999976158142, 0.899999976158142, 0.899999976158142, 1], "metallicFactor" : 0, "roughnessFactor" : 0}, "emissiveFactor" : [0, 0, 0], "alphaMode" : "OPAQUE", "doubleSided" : false}, {"pbrMetallicRoughness" : {"baseColorFactor" : [0.899999976158142, 0.899999976158142, 0.899999976158142, 1], "metallicFactor" : 0, "roughnessFactor" : 0}, "emissiveFactor" : [0, 0, 0], "alphaMode" : "OPAQUE", "doubleSided" : false}, {"pbrMetallicRoughness" : {"baseColorFactor" : [0.899999976158142, 0.899999976158142, 0.899999976158142, 1], "metallicFactor" : 0, "roughnessFactor" : 0}, "emissiveFactor" : [0, 0, 0], "alphaMode" : "OPAQUE", "doubleSided" : false}], "meshes" : [{"primitives" : [{"attributes" : {"POSITION" : 1, "COLOR" : 2}, "indices" : 0, "material" : 0, "mode" : 4}]}, {"primitives" : [{"attributes" : {"POSITION" : 4, "COLOR" : 5}, "indices" : 3, "material" : 1, "mode" : 4}]}, {"primitives" : [{"attributes" : {"POSITION" : 7, "COLOR" : 8}, "indices" : 6, "material" : 2, "mode" : 4}]}, {"primitives" : [{"attributes" : {"POSITION" : 10, "COLOR" : 11}, "indices" : 9, "material" : 3, "mode" : 4}]}, {"primitives" : [{"attributes" : {"POSITION" : 13, "COLOR" : 14}, "indices" : 12, "material" : 4, "mode" : 4}]}, {"primitives" : [{"attributes" : {"POSITION" : 16, "COLOR" : 17}, "indices" : 15, "material" : 5, "mode" : 4}]}, {"primitives" : [{"attributes" : {"POSITION" : 19, "COLOR" : 20}, "indices" : 18, "material" : 6, "mode" : 4}]}], "nodes" : [{"mesh" : 0, "name" : "EXTRUDE_1"}, {"mesh" : 1, "name" : "CAP_1"}, {"mesh" : 2, "name" : "CAP_2"}, {"mesh" : 3, "name" : "EXTRUDE"}, {"mesh" : 4, "name" : "ROUNDING"}, {"mesh" : 5, "name" : "CAP_1_1"}, {"mesh" : 6, "name" : "CAP_2_1"}], "scene" : 0, "scenes" : [{"nodes" : [0, 1, 2, 3, 4, 5, 6]}]}